<svg version="1.1" id="Layer_1" xmlns="http://www.w3.org/2000/svg" xmlns:xlink="http://www.w3.org/1999/xlink" x="0px" y="0px"
	 width="100%" viewBox="0 0 1149 1369" enable-background="new 0 0 1149 1369" xml:space="preserve">
<path fill="none" opacity="1.000000" stroke="#000000" stroke-linecap="round" stroke-linejoin="round" stroke-width="3.000000"
	d="
M19.000000,1351.500000 
	C20.603207,1352.301270 22.325624,1351.989014 24.000000,1351.989014 
	C391.333344,1352.000488 758.666687,1352.000732 1126.000000,1351.973145 
	C1127.494385,1351.973022 1129.091553,1352.490479 1130.750000,1351.451782 
	C1130.750000,907.500000 1130.750000,463.500000 1130.750000,19.250000 
	C760.166687,19.250000 389.833344,19.250000 19.000000,19.250000 
	C19.000000,463.333221 19.000000,907.166626 19.000000,1351.000000 
"/>
<path fill="none" opacity="1.000000" stroke="#000000" stroke-linecap="round" stroke-linejoin="round" stroke-width="3.000000"
	d="
M677.000000,922.000000 
	C678.767700,924.997314 682.170593,926.820862 683.020020,930.495361 
	C683.365601,931.990356 684.509216,932.555786 686.000183,932.504944 
	C686.832520,932.476624 687.666687,932.496094 688.500000,932.500610 
	C719.333313,932.666626 750.167297,932.760742 780.999817,933.021851 
	C808.000671,933.250488 835.001892,933.560425 861.999268,934.042480 
	C876.670166,934.304443 891.333313,935.000061 906.000061,935.498474 
	C906.333008,935.509766 906.685791,935.428162 906.997070,935.510925 
	C910.713867,936.498596 915.812988,935.712158 917.285706,940.072388 
	C918.614563,944.006653 915.198975,947.339417 912.967590,950.476990 
	C909.458313,955.411743 904.500183,957.059021 898.499939,957.055542 
	C772.500000,956.982056 646.500000,957.006958 520.500000,956.958252 
	C517.499878,956.957092 514.472473,956.490356 511.505249,955.970032 
	C503.254059,954.523071 497.857178,943.948730 501.511230,936.505493 
	C502.533722,934.422791 504.155334,932.892578 506.505188,932.533936 
	C508.647369,932.206970 510.833252,932.022400 513.000000,932.021179 
	C563.500000,931.993774 614.000000,932.008301 664.500000,931.989014 
	C670.500000,931.986694 676.500000,933.406738 682.500000,932.000000 
"/>
<path fill="none" opacity="1.000000" stroke="#000000" stroke-linecap="round" stroke-linejoin="round" stroke-width="3.000000"
	d="
M677.000000,132.000000 
	C677.443604,160.332031 678.295288,188.657913 678.055481,217.000473 
	C678.006165,222.830566 678.766785,228.663483 678.952881,234.501495 
	C679.032227,236.990112 679.490051,239.554886 678.500854,242.000061 
	C684.666687,242.000000 690.833313,242.000000 697.000000,242.000000 
	C707.000000,242.000000 717.005310,242.210907 726.998962,241.959244 
	C753.662964,241.287781 780.335510,241.288773 806.996887,240.823013 
	C827.664307,240.461975 848.329224,240.129456 868.999634,239.957214 
	C880.168335,239.864166 891.366760,239.760056 902.491150,238.887512 
	C915.201050,237.890594 919.525391,230.046097 917.884277,217.515152 
	C915.043335,195.822495 911.072754,174.308151 906.056274,152.986755 
	C902.805847,139.171921 896.723938,134.517319 882.504578,133.895401 
	C853.678406,132.634644 824.841492,132.101669 796.002808,131.387085 
	C773.162598,130.821136 750.333069,131.205276 727.499756,131.030502 
	C708.167603,130.882538 688.832275,130.872757 669.500244,131.032211 
	C645.332458,131.231552 621.160339,131.430756 597.002136,132.078934 
	C579.501587,132.548508 562.005310,132.860840 544.500793,133.065811 
	C527.997192,133.259064 511.498901,133.967102 495.000519,134.515518 
	C487.998169,134.748306 484.065308,138.715103 484.008362,145.500076 
	C483.819519,167.999878 483.623260,190.499817 483.528992,213.000122 
	C483.503845,218.999313 484.192200,225.016647 483.914917,230.996063 
	C483.510284,239.722244 489.335541,244.912720 497.000214,244.939423 
	C518.836609,245.015488 540.678284,245.343124 562.503296,244.055389 
	C568.648560,243.692780 574.833984,244.058960 580.999878,243.989868 
	C608.666809,243.679810 636.333679,243.357925 663.999695,242.976074 
	C668.665405,242.911667 673.326843,242.531982 677.816589,242.306686 
	C679.541443,244.113678 678.978210,246.133423 678.980408,248.000031 
	C679.009766,272.833344 678.938171,297.666870 679.020935,322.499939 
	C679.079773,340.166931 679.333313,357.833344 679.500000,375.500000 
"/>
<path fill="none" opacity="1.000000" stroke="#000000" stroke-linecap="round" stroke-linejoin="round" stroke-width="3.000000"
	d="
M929.000000,1195.000000 
	C759.833313,1195.000000 590.666687,1195.036255 421.500061,1194.926147 
	C408.960419,1194.917969 396.736511,1196.770996 384.500000,1199.000000 
"/>
<path fill="none" opacity="1.000000" stroke="#000000" stroke-linecap="round" stroke-linejoin="round" stroke-width="3.000000"
	d="
M936.500000,968.500000 
	C769.000977,969.648254 601.499634,968.618042 434.000305,969.101746 
	C418.347992,969.146973 403.252136,967.013611 388.505646,961.983459 
	C386.869904,961.425537 385.307037,960.596558 384.000000,962.500000 
"/>
<path fill="none" opacity="1.000000" stroke="#000000" stroke-linecap="round" stroke-linejoin="round" stroke-width="3.000000"
	d="
M904.500000,1061.500000 
	C902.728210,1062.343384 900.838623,1061.986206 899.000000,1061.986450 
	C741.500000,1062.000977 584.000000,1062.000000 426.500000,1062.000000 
"/>
<path fill="none" opacity="1.000000" stroke="#000000" stroke-linecap="round" stroke-linejoin="round" stroke-width="3.000000"
	d="
M903.500000,1139.000000 
	C744.500000,1139.000000 585.500000,1139.000000 426.500000,1139.000000 
"/>
<path fill="none" opacity="1.000000" stroke="#000000" stroke-linecap="round" stroke-linejoin="round" stroke-width="3.000000"
	d="
M903.500000,1102.000000 
	C744.500000,1102.000000 585.500000,1102.000000 426.500000,1102.000000 
"/>
<path fill="none" opacity="1.000000" stroke="#000000" stroke-linecap="round" stroke-linejoin="round" stroke-width="3.000000"
	d="
M903.500000,993.000000 
	C744.500000,993.000000 585.500000,993.000000 426.500000,993.000000 
"/>
<path fill="none" opacity="1.000000" stroke="#000000" stroke-linecap="round" stroke-linejoin="round" stroke-width="3.000000"
	d="
M426.500000,1171.500000 
	C428.271820,1172.343384 430.161285,1171.983887 432.000000,1171.985840 
	C453.666656,1172.007690 475.333344,1172.000000 497.000000,1172.000000 
	C626.000000,1172.000000 755.000000,1172.007202 884.000000,1171.978638 
	C890.500061,1171.977295 897.000000,1171.666626 903.500000,1171.500000 
"/>
<path fill="none" opacity="1.000000" stroke="#000000" stroke-linecap="round" stroke-linejoin="round" stroke-width="3.000000"
	d="
M903.500000,1026.000000 
	C744.500000,1026.000000 585.500000,1026.000000 426.500000,1026.000000 
"/>
<path fill="none" opacity="1.000000" stroke="#000000" stroke-linecap="round" stroke-linejoin="round" stroke-width="3.000000"
	d="
M675.000000,1239.000000 
	C675.731323,1234.775024 680.068420,1232.610596 681.276123,1228.000000 
	C671.505859,1228.000000 661.998718,1227.861450 652.504517,1228.149292 
	C651.077393,1228.192627 649.488525,1228.464355 647.999939,1228.465698 
	C602.666687,1228.507812 557.333313,1228.499512 512.000000,1228.501099 
	C508.531708,1228.501221 504.907562,1228.749390 502.032135,1226.459595 
	C496.914459,1222.384399 499.216400,1210.093384 505.507538,1207.518433 
	C508.530884,1206.280884 511.719513,1205.954224 515.000183,1205.975098 
	C570.832825,1206.330200 626.671265,1206.343750 682.499573,1206.250244 
	C753.165649,1206.131958 823.833618,1206.314575 894.500061,1206.010132 
	C902.863403,1205.974121 910.376404,1207.400024 914.073303,1216.470093 
	C915.990967,1221.175171 915.381287,1222.724121 910.531189,1224.581543 
	C906.555908,1226.104004 902.449097,1225.671143 898.493164,1225.844238 
	C882.342834,1226.551392 866.168091,1226.796387 849.999695,1226.970337 
	C824.167542,1227.247925 798.324646,1226.973755 772.502258,1227.594360 
	C742.664490,1228.311523 712.832581,1227.699219 682.999878,1227.985840 
	C682.318726,1227.992432 681.500671,1228.330566 680.933350,1227.377319 
	C682.149292,1220.714233 682.164978,1213.845459 682.500000,1207.000000 
"/>
<path fill="none" opacity="1.000000" stroke="#000000" stroke-linecap="round" stroke-linejoin="round" stroke-width="3.000000"
	d="
M430.000000,614.500000 
	C437.479095,615.606750 445.010437,615.050842 452.497253,614.879639 
	C457.393982,614.767639 460.013000,610.523315 459.522034,605.497864 
	C457.657440,586.412354 454.861023,567.450745 451.954803,548.506958 
	C450.982727,542.170471 449.799683,535.870789 448.889679,529.515808 
	C447.958008,523.009338 442.906921,519.721680 435.505341,518.948853 
	C416.379547,516.951782 397.164581,516.362854 377.997498,515.036255 
	C374.348328,514.783630 370.666321,515.032959 367.000061,514.994385 
	C349.997162,514.815552 332.999298,513.139099 316.004486,514.080933 
	C294.510376,515.271973 272.955780,514.778442 251.487305,516.869629 
	C243.671997,517.630981 235.802979,517.951965 227.997986,518.984741 
	C222.552582,519.705322 219.111023,522.600342 218.014664,528.002991 
	C214.972397,542.994385 211.976456,557.995361 209.008118,573.001587 
	C206.965759,583.326538 204.804260,593.633911 203.067657,604.011292 
	C201.877243,611.124939 204.318527,615.044312 212.500061,615.025635 
	C241.333237,614.959717 270.166656,615.000000 299.000000,615.000000 
	C340.833344,615.000000 382.666656,615.009338 424.499969,614.965820 
	C426.156555,614.964111 427.922546,615.558716 429.500000,614.500000 
"/>
<path fill="none" opacity="1.000000" stroke="#000000" stroke-linecap="round" stroke-linejoin="round" stroke-width="3.000000"
	d="
M743.500000,391.000000 
	C740.922302,369.128876 745.385437,349.446930 760.961060,332.963196 
	C769.851318,323.554657 780.468750,317.428864 793.001221,314.505341 
	C808.676819,310.848541 823.765625,313.199036 837.406006,321.160980 
	C854.133789,330.925018 865.090942,345.541107 868.422485,365.013275 
	C869.802002,373.076294 871.041626,381.271576 869.447449,389.489807 
	C869.125793,391.148407 869.971313,392.215515 870.253357,392.882660 
	C878.519836,393.317261 886.502930,392.553162 894.501038,392.015533 
	C910.164185,390.962677 925.829346,389.930511 941.502319,389.040466 
	C946.508118,388.756134 951.499512,388.831146 956.512756,388.085693 
	C966.826904,386.552002 970.740967,383.270416 971.891052,372.987823 
	C972.463806,367.866241 973.333557,362.736084 973.086182,357.495941 
	C972.930847,354.206268 972.740112,351.408325 969.528931,349.452484 
	C964.710571,346.517731 963.833313,341.959808 963.889038,336.498871 
	C964.142273,311.668121 964.027039,286.833313 963.987610,262.000031 
	C963.970276,251.109497 962.545288,240.313629 961.463928,229.503601 
	C960.013062,214.999023 959.334290,200.430023 957.083557,185.986984 
	C954.604980,170.081680 952.213806,154.176132 948.504822,138.498856 
	C947.639160,134.839844 946.777832,131.178207 946.012085,127.497498 
	C944.577698,120.603432 939.913879,115.966301 932.996948,115.022369 
	C919.729126,113.211731 906.355408,112.589638 892.997864,112.053864 
	C868.342346,111.064919 843.678589,110.331352 819.001587,109.908699 
	C799.334900,109.571854 779.672607,109.032341 760.000061,108.975716 
	C748.999695,108.944046 737.989014,108.270195 727.002075,108.574509 
	C694.334412,109.479324 661.659790,108.417641 629.002686,109.123528 
	C612.996521,109.469505 596.998901,109.234756 581.000061,109.502357 
	C561.666565,109.825729 542.333374,110.171150 523.000000,110.498764 
	C503.000061,110.837662 482.992126,110.922798 463.002228,111.568771 
	C443.117615,112.211349 423.189117,112.028572 403.477539,115.885162 
	C388.258972,118.862701 374.902252,125.282120 363.550507,135.555817 
	C334.963409,161.428101 306.835815,187.795654 279.461090,214.960785 
	C273.102417,221.270798 266.338715,227.172043 260.500000,234.000000 
"/>
<path fill="none" opacity="1.000000" stroke="#000000" stroke-linecap="round" stroke-linejoin="round" stroke-width="3.000000"
	d="
M755.000000,390.500000 
	C753.228210,391.343353 751.292542,390.674683 749.511230,391.053009 
	C747.094421,391.566315 743.551697,389.050201 742.440674,393.485138 
	C742.411072,393.602997 741.500000,393.500000 741.000000,393.500000 
	C740.333313,393.500000 739.666687,393.498383 739.000000,393.500214 
	C679.000000,393.666626 618.996765,393.520874 559.001404,394.138641 
	C531.165283,394.425293 503.327637,393.975403 475.501129,394.554688 
	C430.500519,395.491486 385.499481,394.688690 340.499939,394.989410 
	C338.824341,395.000610 337.099457,395.338898 335.347900,394.090607 
	C336.265198,388.516632 336.063232,382.501862 335.981628,376.500244 
	C335.566620,345.978333 315.440491,321.439484 286.501404,314.993744 
	C266.263062,310.485992 248.807220,316.376770 233.548920,329.556641 
	C224.019730,337.787811 217.814499,348.255768 214.443619,360.484467 
	C211.700775,370.434937 212.742706,380.496063 213.181839,390.492004 
	C213.352081,394.367310 212.368164,395.019073 209.000473,395.050842 
	C194.840164,395.184326 180.902786,393.984680 167.498627,389.003693 
	C164.942703,388.053894 161.470490,387.721832 161.142593,384.485565 
	C160.765747,380.766083 164.788620,380.912994 167.000000,379.500000 
"/>
<path fill="none" opacity="1.000000" stroke="#000000" stroke-linecap="round" stroke-linejoin="round" stroke-width="3.000000"
	d="
M306.500000,932.000000 
	C310.591736,931.232544 314.508087,932.542664 318.502991,932.972229 
	C322.049835,933.353638 325.490753,932.679321 327.936249,929.942993 
	C329.506317,928.186279 331.613373,926.040588 330.875610,923.536621 
	C329.958130,920.422668 326.918671,919.998108 324.000000,919.999390 
	C319.500000,920.001404 314.966827,919.654419 310.507904,920.082336 
	C304.076691,920.699524 297.867371,918.899536 291.499634,918.962280 
	C278.667542,919.088867 265.828522,918.775635 253.001129,919.052185 
	C233.292191,919.476990 213.721786,921.436707 194.506027,926.025208 
	C172.754395,931.219421 159.399551,945.648682 150.387390,965.448730 
	C141.588242,984.780762 138.030380,1005.235413 135.542236,1026.005005 
	C134.051483,1038.449097 133.351822,1050.951782 132.850952,1063.494019 
	C132.189758,1080.050537 132.598923,1096.561035 134.123856,1112.988525 
	C136.581879,1139.467285 140.062698,1165.808960 150.981720,1190.508057 
	C160.971817,1213.105835 178.075394,1225.886597 202.477112,1230.131592 
	C234.297974,1235.666870 266.316071,1237.100830 298.500061,1237.063721 
	C306.162445,1237.054932 313.796783,1238.507324 321.500000,1238.000000 
"/>
<path fill="none" opacity="1.000000" stroke="#000000" stroke-linecap="round" stroke-linejoin="round" stroke-width="2.000000"
	d="
M383.000000,1196.750000 
	C382.940094,1189.860718 381.048645,1183.242432 380.057617,1176.491577 
	C378.349487,1164.855469 376.768280,1153.190430 375.566864,1141.493164 
	C374.423218,1130.358398 373.491241,1119.179077 373.085663,1107.996948 
	C372.566223,1093.676270 372.330658,1079.327271 372.588623,1065.001587 
	C372.883514,1048.626465 374.033539,1032.296387 375.845245,1015.982788 
	C377.409546,1001.896912 379.481812,987.925598 382.007324,974.001343 
	C382.613922,970.656921 385.237457,966.687866 383.666931,964.211243 
	C381.969147,961.533997 377.364258,961.253662 374.034271,959.914795 
	C362.846649,955.416870 351.008453,953.229187 339.447998,950.198364 
	C324.956055,946.399109 310.477112,942.086121 295.489655,940.604675 
	C287.311035,939.796204 279.691315,940.774658 274.351257,948.902283 
	C269.392853,956.448730 266.251526,964.578918 263.492004,972.997375 
	C262.708801,975.386719 261.808502,976.713257 258.529297,977.198120 
	C235.337509,980.626892 212.328110,985.121460 189.500000,990.500000 
"/>
<path fill="none" opacity="1.000000" stroke="#000000" stroke-linecap="round" stroke-linejoin="round" stroke-width="3.000000"
	d="
M799.000000,763.000000 
	C799.000000,721.833313 799.000000,680.666687 799.000000,639.000000 
	C797.178162,639.000000 795.338562,638.972229 793.500061,639.004150 
	C766.989868,639.464783 740.496216,638.463867 714.003418,637.851685 
	C707.697449,637.705933 701.217468,638.252625 694.980652,636.054871 
	C687.936157,633.572510 684.389282,628.732666 682.910522,621.518311 
	C680.666870,610.572510 682.883179,599.780823 683.678467,589.013184 
	C684.943848,571.880493 687.686340,554.880493 690.996887,537.999390 
	C691.519043,535.337036 691.679138,532.555298 692.558899,530.020447 
	C695.424500,521.764099 698.516113,519.093811 711.004944,518.059631 
	C737.784058,515.841858 764.611633,514.634644 791.500427,514.967163 
	C806.331421,515.150574 821.188049,514.496155 835.994690,515.124573 
	C855.516113,515.953186 875.079102,516.591553 894.491760,519.064819 
	C899.476868,519.700012 903.257385,522.220642 905.072021,527.475159 
	C907.828979,535.458191 908.756470,543.768616 909.922363,552.010986 
	C911.873352,565.804077 913.916931,579.629761 914.795044,593.512939 
	C915.380981,602.778015 916.583862,612.208313 914.932556,621.487976 
	C913.356628,630.344421 908.010376,636.803040 894.497925,637.457642 
	C862.851929,638.990723 831.178894,639.274475 799.000000,638.922363 
	C799.000000,594.001221 799.000000,549.000610 799.000000,504.000000 
"/>
<path fill="none" opacity="1.000000" stroke="#000000" stroke-linecap="round" stroke-linejoin="round" stroke-width="3.000000"
	d="
M475.000000,623.500000 
	C473.221130,620.567505 473.390350,617.118408 473.135895,613.988953 
	C471.662048,595.864075 468.387573,577.986389 465.838928,560.022827 
	C463.591156,544.179749 460.509277,528.458008 456.218475,512.939575 
	C453.122498,501.742493 450.014069,495.496826 434.999023,494.514740 
	C420.173981,493.545135 405.358856,492.496368 390.504059,491.898834 
	C370.505463,491.094421 350.506439,490.811340 330.501770,490.411530 
	C306.632568,489.934448 282.826721,490.864197 258.994019,491.856323 
	C247.800217,492.322296 236.660995,493.261902 225.502899,494.041565 
	C215.666061,494.728912 211.881744,497.033325 208.179810,506.569794 
	C203.429077,518.808105 199.825363,531.470581 197.402451,544.481812 
	C193.593750,564.934814 190.388611,585.480957 186.975769,605.995972 
	C186.831894,606.860779 186.333313,607.666687 185.999985,608.500000 
"/>
<path fill="none" opacity="1.000000" stroke="#000000" stroke-linecap="round" stroke-linejoin="round" stroke-width="3.000000"
	d="
M286.500000,942.000000 
	C278.755737,949.180603 275.360687,958.653931 273.063171,968.514709 
	C269.306732,984.637085 267.217102,1001.039795 265.451050,1017.494751 
	C264.040436,1030.637817 263.151459,1043.802734 262.438751,1056.996704 
	C261.907257,1066.835327 261.910309,1076.668335 262.041870,1086.499390 
	C262.308075,1106.396973 263.481781,1126.230469 265.900085,1146.012207 
	C267.567749,1159.653564 269.480072,1173.164307 272.825775,1186.543579 
	C275.313812,1196.493042 279.292358,1205.239258 286.500000,1212.500000 
"/>
<path fill="none" opacity="1.000000" stroke="#000000" stroke-linecap="round" stroke-linejoin="round" stroke-width="3.000000"
	d="
M348.000000,920.500000 
	C377.328186,921.574707 406.666870,920.834961 436.000214,920.943481 
	C445.998901,920.980469 455.994873,921.218994 466.000824,921.170532 
	C533.499268,920.843506 601.000000,921.000000 668.500000,921.000000 
	C712.666687,921.000000 756.833679,920.890869 800.999817,921.044617 
	C824.167419,921.125244 847.336731,921.516541 870.498962,922.046631 
	C889.670837,922.485291 908.837280,923.239380 927.998169,924.043213 
	C936.420166,924.396606 944.781494,925.546692 952.997009,927.512451 
	C962.283020,929.734436 967.459412,935.597656 969.588562,944.979919 
	C974.155701,965.104919 976.530579,985.527466 978.432495,1006.006287 
	C980.253967,1025.618042 981.310791,1045.277832 981.589417,1064.998779 
	C982.029053,1096.113647 980.160278,1127.070190 977.077515,1158.007690 
	C975.353699,1175.307251 973.029785,1192.483032 969.503357,1209.500732 
	C968.813599,1212.829224 968.509460,1216.281738 967.436035,1219.478516 
	C964.163330,1229.224121 955.942383,1234.466064 945.009583,1235.593018 
	C921.218750,1238.045532 897.344788,1237.747681 873.503967,1238.610107 
	C866.163330,1238.875732 858.833618,1238.914795 851.499817,1238.982788 
	C729.501343,1240.114380 607.499878,1239.260986 485.499878,1239.405396 
	C475.509735,1239.417114 465.529053,1238.750610 455.498505,1238.852539 
	C418.835632,1239.225464 382.166656,1239.006470 345.500031,1238.978760 
	C343.833221,1238.977539 342.166656,1238.666626 340.500000,1238.500000 
"/>
<path fill="none" opacity="1.000000" stroke="#000000" stroke-linecap="round" stroke-linejoin="round" stroke-width="3.000000"
	d="
M473.500000,112.000000 
	C472.833313,137.166672 472.280914,162.337357 471.394043,187.496262 
	C471.235474,191.995224 471.048645,196.498489 471.015778,201.000122 
	C470.817383,228.166550 470.356781,255.336060 470.595825,282.499146 
	C470.795349,305.169922 471.814362,327.833923 472.509430,350.499725 
	C472.785461,359.501465 473.166656,368.500000 473.500000,377.500000 
"/>
<path fill="none" opacity="1.000000" stroke="#000000" stroke-linecap="round" stroke-linejoin="round" stroke-width="3.000000"
	d="
M313.500000,253.500015 
	C319.166656,253.166687 324.961578,253.464676 330.468719,252.345993 
	C337.963257,250.823624 345.478302,250.651886 353.000763,250.567413 
	C366.720673,250.413345 380.280273,248.235275 393.992371,247.773315 
	C402.299652,247.493454 410.664276,246.637482 418.998199,245.977097 
	C426.006989,245.421707 433.036469,244.920364 439.988586,243.920639 
	C445.663849,243.104523 449.410065,238.632187 449.998749,232.999878 
	C452.002045,213.833542 454.101929,194.676529 455.956665,175.495804 
	C456.872986,166.019943 457.503601,156.507797 457.939362,146.997223 
	C458.223511,140.795486 455.210876,138.191635 449.001251,137.965347 
	C438.636292,137.587601 428.303467,138.254059 418.006561,139.081680 
	C402.991669,140.288498 389.043365,144.318909 376.388184,153.343170 
	C359.951019,165.064301 346.665070,179.938217 332.356842,193.852798 
	C326.667328,199.385818 321.081024,204.926697 316.000000,211.000000 
"/>
<path fill="none" opacity="1.000000" stroke="#000000" stroke-linecap="round" stroke-linejoin="round" stroke-width="3.000000"
	d="
M939.000000,262.000031 
	C931.333313,262.333344 923.669556,262.837646 915.999390,262.964996 
	C899.167969,263.244568 882.320190,262.983704 865.504272,263.614410 
	C852.827637,264.089844 840.161804,263.627014 827.500793,264.025330 
	C802.838501,264.801178 778.151550,264.497894 753.507324,265.241943 
	C733.495667,265.846130 713.499634,265.653931 693.500671,266.036316 
	C688.995972,266.122437 684.500000,266.666656 680.000000,267.000000 
"/>
<path fill="none" opacity="1.000000" stroke="#000000" stroke-linecap="round" stroke-linejoin="round" stroke-width="2.000000"
	d="
M964.000000,956.500000 
	C968.589294,966.855286 968.734802,978.056641 969.930542,989.007568 
	C972.542175,1012.924500 973.526794,1036.938965 974.146057,1060.996216 
	C974.606323,1078.877441 973.797119,1096.668457 973.101013,1114.503906 
	C972.468689,1130.704346 971.565796,1146.887817 969.862549,1162.985474 
	C968.460327,1176.238281 968.548279,1189.802734 963.534302,1202.513550 
	C963.061340,1203.712769 962.406616,1204.660034 961.500000,1205.500000 
"/>
<path fill="none" opacity="1.000000" stroke="#000000" stroke-linecap="round" stroke-linejoin="round" stroke-width="3.000000"
	d="
M943.500000,926.500000 
	C943.361816,928.440491 945.204773,929.163818 945.945923,930.529358 
	C947.394287,933.198120 948.497925,936.222290 946.456116,938.967346 
	C940.933716,946.391785 937.145142,954.853394 932.077515,962.551025 
	C930.392395,965.110596 929.633301,968.163757 929.942261,971.505310 
	C931.404907,987.326721 933.324524,1003.147095 933.797546,1019.006042 
	C934.194946,1032.333008 935.146729,1045.651733 935.024841,1059.000244 
	C934.909180,1071.665771 935.438965,1084.352051 934.899536,1096.995728 
	C934.038940,1117.166626 933.630127,1137.354248 932.168091,1157.512207 
	C931.286133,1169.671875 930.397705,1181.838135 929.467407,1193.997559 
	C929.285645,1196.373047 930.288269,1198.145020 931.478271,1200.013794 
	C935.700745,1206.644897 939.399963,1213.664673 944.153076,1219.882935 
	C947.296509,1223.995483 946.426331,1227.227905 944.511108,1231.005615 
	C943.938354,1232.135376 943.500000,1233.333374 943.000000,1234.500000 
"/>
<path fill="none" opacity="1.000000" stroke="#000000" stroke-linecap="round" stroke-linejoin="round" stroke-width="2.000000"
	d="
M908.500000,768.000000 
	C905.166687,766.515808 901.835999,768.088318 898.499573,768.066467 
	C878.167114,767.933350 857.833069,768.063416 837.500061,767.979736 
	C821.499695,767.913879 805.500244,767.559753 789.499939,767.522461 
	C757.166809,767.447144 724.833069,767.447571 692.500427,767.596680 
	C689.830383,767.609070 687.166687,766.064636 684.500000,767.500000 
"/>
<path fill="none" opacity="1.000000" stroke="#000000" stroke-linecap="round" stroke-linejoin="round" stroke-width="3.000000"
	d="
M944.500000,968.500000 
	C951.795105,972.940552 951.113586,980.703735 951.875366,987.513916 
	C953.604431,1002.969666 955.231201,1018.477173 955.858887,1034.005737 
	C956.666321,1053.981812 957.655762,1073.965942 956.633057,1094.006836 
	C955.927246,1107.836304 955.348206,1121.677368 954.464600,1135.497681 
	C953.600098,1149.020142 952.848022,1162.555054 951.059448,1176.007935 
	C950.619446,1179.317383 950.503357,1182.693970 950.214478,1186.018677 
	C949.910400,1189.518311 948.440979,1191.985474 946.500000,1194.500000 
"/>
<path fill="none" opacity="1.000000" stroke="#000000" stroke-linecap="round" stroke-linejoin="round" stroke-width="3.000000"
	d="
M742.000000,376.000000 
	C721.500000,376.295441 701.005005,377.083405 680.496033,376.080750 
	C676.023071,375.862030 671.500732,376.943573 666.999878,376.955505 
	C635.333435,377.039337 603.657349,376.509338 572.002136,377.110840 
	C519.834473,378.102203 467.666473,377.704315 415.501190,378.141388 
	C401.003571,378.262848 386.496368,378.150513 372.001251,378.546021 
	C365.827087,378.714539 359.676361,379.492554 353.497253,378.517426 
	C347.397095,377.554718 346.370850,376.773956 345.023712,370.494904 
	C343.145050,361.738342 341.222778,353.090576 337.102112,344.948303 
	C331.768890,334.410004 323.831085,326.634766 314.000000,320.500000 
"/>
<path fill="none" opacity="1.000000" stroke="#000000" stroke-linecap="round" stroke-linejoin="round" stroke-width="3.000000"
	d="
M694.500000,728.000000 
	C699.299133,729.158875 704.177307,728.375122 709.000732,728.418274 
	C730.165710,728.607788 751.333313,728.500000 772.250000,728.500000 
	C772.250000,736.503479 772.250000,744.506958 772.250000,752.750000 
	C748.500000,752.750000 725.000000,752.750000 701.000000,752.750000 
	C701.000000,744.673767 701.000000,736.836853 701.000000,729.000000 
"/>
<path fill="none" opacity="1.000000" stroke="#000000" stroke-linecap="round" stroke-linejoin="round" stroke-width="3.000000"
	d="
M258.000000,989.000000 
	C252.097183,991.782166 245.853378,994.393616 244.077744,1001.519348 
	C242.689758,1007.089355 241.761368,1012.803223 241.042221,1018.505310 
	C238.258392,1040.577881 236.389008,1062.749878 237.121368,1084.995972 
	C237.643829,1100.865601 238.327362,1116.749878 240.857895,1132.522827 
	C242.428741,1142.313843 243.372528,1152.146118 246.934845,1161.524780 
	C248.451950,1165.518921 251.203522,1167.798706 255.011932,1168.960938 
	C258.815826,1170.121582 260.534637,1168.399902 260.015930,1164.497925 
	C257.058655,1142.251587 254.385147,1120.003296 253.817505,1097.504639 
	C253.569580,1087.677734 252.425262,1077.798706 253.150955,1068.011230 
	C254.090240,1055.342773 254.533737,1042.644653 255.759735,1029.976807 
	C256.924438,1017.942017 259.117004,1006.055847 260.154449,994.013306 
	C260.433441,990.774719 257.695953,988.563477 258.500000,985.500000 
"/>
<path fill="none" opacity="1.000000" stroke="#000000" stroke-linecap="round" stroke-linejoin="round" stroke-width="3.000000"
	d="
M324.500000,392.000000 
	C323.971741,387.548035 326.117584,383.468384 326.086121,378.999390 
	C325.907104,353.580292 310.637177,332.508148 284.949097,326.207489 
	C269.540253,322.428131 254.933197,326.537323 242.562546,336.577057 
	C232.752411,344.538757 226.343155,354.878876 223.996536,367.499359 
	C220.528305,386.152313 225.714828,402.124847 239.017685,415.482391 
	C248.496078,424.999756 260.238708,429.821686 273.500580,429.895721 
	C296.575012,430.024597 314.826599,415.967255 322.505829,396.002228 
	C322.961151,394.818420 323.500000,393.666656 324.000000,392.500000 
"/>
<path fill="none" opacity="1.000000" stroke="#000000" stroke-linecap="round" stroke-linejoin="round" stroke-width="3.000000"
	d="
M858.000000,390.500000 
	C857.986206,386.305573 859.182312,382.258759 859.077148,377.998108 
	C858.269958,345.290741 828.668152,321.654907 797.952087,326.708862 
	C770.165405,331.280884 748.565552,359.433380 755.826477,389.922241 
	C763.669983,422.857758 795.494263,438.379852 824.467834,427.910950 
	C841.875488,421.621094 852.683960,408.848755 857.500000,391.000000 
"/>
<path fill="none" opacity="1.000000" stroke="#000000" stroke-linecap="round" stroke-linejoin="round" stroke-width="3.000000"
	d="
M398.000000,715.000000 
	C403.197449,710.296814 404.609070,703.632507 406.953522,697.482300 
	C408.057739,694.585571 408.607056,691.481873 409.513428,688.504089 
	C411.030640,683.519409 409.116730,680.504578 403.998932,680.011108 
	C403.173279,679.931458 402.333344,680.000000 401.500000,680.000000 
	C354.000000,680.000000 306.500000,680.004761 259.000000,679.988647 
	C256.045166,679.987610 253.164780,679.940796 250.980515,682.483276 
	C249.698807,683.975098 248.632339,685.167114 249.390839,687.534973 
	C250.250977,690.219971 252.011826,690.010620 254.000015,690.006226 
	C261.166626,689.990417 268.336029,689.875549 275.499359,690.030273 
	C285.335297,690.242737 295.165039,690.818726 305.000824,690.923645 
	C308.829163,690.964478 312.666656,689.686951 316.500000,691.000000 
"/>
<path fill="none" opacity="1.000000" stroke="#000000" stroke-linecap="round" stroke-linejoin="round" stroke-width="2.000000"
	d="
M428.000000,681.500000 
	C423.097290,688.665527 420.807281,697.089172 418.333832,705.103027 
	C415.571136,714.053894 409.752930,719.268005 402.394806,723.308411 
	C399.891449,724.683044 396.168549,723.908569 392.999695,723.988342 
	C358.503479,724.857483 323.997345,724.669067 289.501892,724.315735 
	C280.032104,724.218689 270.498779,724.382812 260.967224,723.284546 
	C255.674423,722.674744 250.044907,723.727051 244.497726,723.631165 
	C228.472458,723.354126 212.518402,721.790894 196.511551,721.191528 
	C189.749146,720.938171 182.694901,721.585632 176.000000,719.500000 
"/>
<path fill="none" opacity="1.000000" stroke="#000000" stroke-linecap="round" stroke-linejoin="round" stroke-width="2.000000"
	d="
M161.000000,998.000000 
	C155.300964,1003.483826 152.311096,1010.689514 151.195465,1018.029724 
	C147.675095,1041.191284 147.155563,1064.591064 147.499374,1088.000000 
	C147.757965,1105.606689 149.305878,1123.122192 152.128708,1140.479126 
	C153.239716,1147.310303 155.956787,1153.827271 161.000000,1159.000000 
"/>
<path fill="none" opacity="1.000000" stroke="#000000" stroke-linecap="round" stroke-linejoin="round" stroke-width="2.000000"
	d="
M460.500000,146.500000 
	C461.067596,143.073486 459.733887,139.976181 458.419189,137.036133 
	C456.979187,133.815994 454.269318,131.951706 450.499908,131.991776 
	C432.001282,132.188522 413.490356,132.256897 395.501312,137.504456 
	C386.677643,140.078369 378.694733,144.157806 371.463135,149.953995 
	C351.465271,165.982483 333.058746,183.553513 317.473846,203.980042 
	C315.376801,206.728561 312.215820,209.077835 316.445343,212.566269 
	C316.854401,212.903641 316.500000,214.166672 316.500000,215.000000 
	C316.500000,218.833328 316.500000,222.666672 316.500000,226.500000 
"/>
<path fill="none" opacity="1.000000" stroke="#000000" stroke-linecap="round" stroke-linejoin="round" stroke-width="3.000000"
	d="
M207.000000,924.500000 
	C206.787415,927.281677 204.120728,927.394165 202.466568,928.447510 
	C191.775513,935.255249 181.090500,941.815918 173.892105,952.930115 
	C165.364899,966.095886 160.417770,980.544556 156.352890,995.337585 
	C157.833328,996.965820 159.166672,995.319885 160.499359,995.496460 
	C162.018082,996.660645 162.082428,998.623108 161.884430,999.983154 
	C161.060974,1005.639099 160.750427,1011.384827 159.807556,1016.967468 
	C158.430206,1025.122681 157.990036,1033.339722 157.109222,1041.511719 
	C155.355331,1057.783936 156.050583,1074.160889 156.000656,1090.500000 
	C155.960709,1103.579712 157.411743,1116.529907 158.828293,1129.518677 
	C159.739365,1137.872681 160.645920,1146.209106 161.996689,1154.500488 
	C162.023132,1154.662842 162.039978,1154.845337 161.994293,1154.998291 
	C159.681366,1162.744629 164.026306,1166.256836 170.489395,1168.530151 
	C172.209549,1169.135132 173.392120,1170.411865 174.567291,1171.948486 
	C185.855179,1186.709106 196.701126,1201.857788 210.503006,1214.496704 
	C212.596085,1216.413452 214.729279,1218.286377 217.093643,1220.403076 
	C213.811401,1223.127075 210.865173,1221.175171 207.998795,1221.022705 
	C202.734314,1220.742432 197.916367,1217.785156 192.500000,1218.500000 
"/>
<path fill="none" opacity="1.000000" stroke="#000000" stroke-linecap="round" stroke-linejoin="round" stroke-width="4.000000"
	d="
M433.500000,792.000000 
	C428.180603,792.476929 424.380432,796.468994 419.512970,798.040222 
	C415.946747,799.191284 412.542633,799.692261 408.966125,798.074890 
	C408.198486,797.727783 406.998505,798.324829 406.000244,798.501526 
	C400.040009,799.556335 394.018768,799.500916 388.000000,799.500671 
	C354.000000,799.499390 319.998474,799.672852 286.001129,799.372498 
	C277.993530,799.301819 269.824646,800.309021 262.050201,799.160278 
	C254.542145,798.050964 246.699432,799.754272 239.500000,796.500000 
"/>
<path fill="none" opacity="1.000000" stroke="#000000" stroke-linecap="round" stroke-linejoin="round" stroke-width="3.000000"
	d="
M321.500000,687.000000 
	C315.169617,690.787476 315.958588,697.022217 316.103149,703.210632 
	C295.500000,702.642639 275.000000,703.525024 253.778397,702.306885 
	C257.746643,709.525513 259.594574,717.351440 268.020721,719.415344 
	C272.067078,720.406494 276.327026,720.866333 280.501068,720.938477 
	C302.166840,721.312927 323.831360,722.763916 345.496094,721.901794 
	C359.164001,721.357849 372.899933,721.898682 386.494019,719.958191 
	C390.616913,719.369690 394.886292,718.839050 397.999146,715.502136 
	C397.072937,713.916626 395.530304,713.974731 394.000000,714.000000 
"/>
<path fill="none" opacity="1.000000" stroke="#000000" stroke-linecap="round" stroke-linejoin="round" stroke-width="2.000000"
	d="
M324.500000,935.999939 
	C342.000000,940.999939 359.467346,946.118103 377.009613,950.965088 
	C393.019958,955.388855 409.357849,957.609863 426.000092,957.515564 
	C439.499664,957.439026 453.000214,957.541931 466.499878,957.477051 
	C471.167236,957.454590 475.833344,957.166626 480.500000,957.000000 
"/>
<path fill="none" opacity="1.000000" stroke="#000000" stroke-linecap="round" stroke-linejoin="round" stroke-width="3.000000"
	d="
M469.500000,1228.500000 
	C455.675995,1229.440186 441.831818,1229.043945 428.000305,1228.953491 
	C401.332611,1228.779175 374.666443,1228.348389 348.000214,1227.984985 
	C343.665405,1227.925903 339.331116,1227.709839 335.000793,1227.484863 
	C332.099731,1227.334229 330.538940,1228.372314 331.000000,1231.500000 
"/>
<path fill="none" opacity="1.000000" stroke="#000000" stroke-linecap="round" stroke-linejoin="round" stroke-width="3.000000"
	d="
M393.000000,710.000000 
	C393.521210,713.485779 392.178253,714.865479 388.504120,715.072876 
	C363.686340,716.473572 338.855133,717.454895 314.001343,716.935913 
	C298.660767,716.615540 283.334991,715.621338 267.997772,715.061157 
	C266.218903,714.996155 265.147827,713.556519 263.500000,713.500000 
"/>
<path fill="none" opacity="1.000000" stroke="#000000" stroke-linecap="round" stroke-linejoin="round" stroke-width="4.000000"
	d="
M943.000000,783.000000 
	C937.764221,790.192017 929.927246,790.923462 922.000732,791.509705 
	C909.849243,792.408325 897.629272,792.655334 885.498718,792.708740 
	C869.013245,792.781372 852.499573,792.715637 835.999573,792.536743 
	C830.168762,792.473511 824.223083,793.623535 818.523865,792.828674 
	C807.995422,791.360474 797.483459,791.899902 787.002502,792.119080 
	C764.832825,792.582703 742.656982,792.016663 720.505005,792.670105 
	C712.163269,792.916077 703.710205,793.765564 695.531433,792.747314 
	C685.696594,791.522827 675.778381,791.747864 665.978821,790.128052 
	C660.364014,789.199829 656.748352,786.101562 653.500000,782.000000 
"/>
<path fill="none" opacity="1.000000" stroke="#000000" stroke-linecap="round" stroke-linejoin="round" stroke-width="3.000000"
	d="
M340.500000,930.500000 
	C342.077454,931.558716 343.843445,930.963989 345.500031,930.965820 
	C385.833344,931.009705 426.166656,931.000000 466.500000,931.000000 
"/>
<path fill="none" opacity="1.000000" stroke="#000000" stroke-linecap="round" stroke-linejoin="round" stroke-width="2.000000"
	d="
M929.500000,115.500000 
	C936.302246,127.622559 936.380554,141.297791 938.494873,154.500824 
	C939.855347,162.996475 941.521667,171.464478 942.377075,180.012314 
	C942.962769,185.863998 943.945251,191.677948 944.379272,197.508987 
	C945.407471,211.325256 947.031494,225.114563 947.000000,239.000000 
"/>
<path fill="none" opacity="1.000000" stroke="#000000" stroke-linecap="round" stroke-linejoin="round" stroke-width="3.000000"
	d="
M650.500000,721.000000 
	C659.833313,721.000000 669.166687,721.000000 678.500000,721.000000 
	C757.833313,721.000000 837.166687,720.997375 916.500000,721.030518 
	C917.487000,721.030945 918.646179,720.456177 919.500000,721.500000 
"/>
<path fill="none" opacity="1.000000" stroke="#000000" stroke-linecap="round" stroke-linejoin="round" stroke-width="2.000000"
	d="
M252.500000,744.500000 
	C257.000000,743.015259 261.486206,744.783142 266.003357,744.571838 
	C272.156555,744.283875 278.333435,744.517944 284.499908,744.482727 
	C285.557190,744.476685 287.020355,745.043213 287.020355,743.000000 
	C287.020355,740.956787 285.558289,741.533813 284.499725,741.514587 
	C274.000183,741.323853 263.499573,741.026367 253.000183,741.058105 
	C247.605927,741.074402 246.681580,742.515747 248.012833,747.496582 
	C248.775208,750.348877 249.868759,753.125427 250.457520,756.008667 
	C251.648529,761.841125 255.263748,764.387695 260.999695,764.513611 
	C265.501190,764.612427 270.001099,764.808044 274.499817,765.004028 
	C303.989349,766.289001 333.516449,766.613770 362.990753,765.701477 
	C375.800812,765.304993 388.744781,766.211182 401.501862,764.010681 
	C405.351959,763.346558 408.427094,762.185120 409.107025,757.515564 
	C409.531769,754.598511 411.196930,751.885132 411.959167,748.989258 
	C413.563110,742.895264 412.372192,741.437683 406.000275,741.520752 
	C401.332245,741.581604 396.665985,741.993103 392.000122,741.973694 
	C364.833221,741.860779 337.666809,741.620667 310.499908,741.529358 
	C302.833893,741.503601 295.166656,741.833313 287.500000,742.000000 
"/>
<path fill="none" opacity="1.000000" stroke="#000000" stroke-linecap="round" stroke-linejoin="round" stroke-width="3.000000"
	d="
M962.000000,246.000000 
	C958.628784,241.915375 954.722046,239.552429 948.992432,239.857727 
	C943.323853,240.159805 940.097473,242.264694 940.048767,248.000412 
	C939.909851,264.332581 940.000000,280.666656 940.000000,297.000000 
	C940.000000,305.836487 940.000000,314.672943 940.000000,323.477325 
	C934.623962,325.239380 929.471497,324.677124 924.494934,324.869019 
	C903.506897,325.678528 882.498962,325.960754 861.500793,326.530334 
	C856.828552,326.657043 852.166687,327.166687 847.500000,327.500000 
"/>
<path fill="none" opacity="1.000000" stroke="#000000" stroke-linecap="round" stroke-linejoin="round" stroke-width="3.000000"
	d="
M472.500000,1226.500000 
	C477.843201,1221.846558 478.045288,1215.276245 478.979401,1208.996948 
	C479.244629,1207.213989 478.295776,1206.522583 476.550568,1205.865601 
	C474.837524,1205.220703 473.226837,1205.018799 471.499969,1205.002197 
	C453.666656,1204.831909 435.819916,1205.040894 418.003540,1204.401733 
	C397.417419,1203.662964 377.410797,1206.960693 357.500519,1211.502319 
	C343.664734,1214.658203 329.871399,1218.018311 315.974762,1220.877319 
	C312.238617,1221.645874 308.741058,1222.556519 305.688141,1223.877441 
	C305.884460,1227.897705 309.086914,1225.659424 310.500000,1227.000000 
"/>
<path fill="none" opacity="1.000000" stroke="#000000" stroke-linecap="round" stroke-linejoin="round" stroke-width="2.000000"
	d="
M295.500000,767.000000 
	C294.419830,768.346008 292.583313,766.666565 291.250000,768.274963 
	C291.250000,773.333313 291.250000,778.666687 291.250000,784.250000 
	C317.666656,784.250000 343.833344,784.250000 370.500000,784.250000 
	C370.500000,779.178040 370.504608,774.339050 370.497070,769.500000 
	C370.494965,768.150574 369.128845,767.863586 368.500000,767.000000 
"/>
<path fill="none" opacity="1.000000" stroke="#000000" stroke-linecap="round" stroke-linejoin="round" stroke-width="3.000000"
	d="
M904.500000,793.000000 
	C904.500000,800.833313 904.469849,808.666870 904.509583,816.499939 
	C904.540955,822.678833 906.892212,824.995850 913.000000,824.998901 
	C921.166687,825.003052 929.333679,825.045532 937.499817,824.980286 
	C941.425415,824.948975 943.900940,822.425720 943.990417,818.499756 
	C944.187866,809.833801 945.199890,801.074402 944.288940,792.522461 
	C943.046387,780.856995 947.297729,770.183350 948.532532,759.003601 
	C949.744751,748.029175 949.813354,736.997070 950.600220,726.007202 
	C950.820801,722.926941 948.577515,721.601318 947.435486,719.535645 
	C944.681458,714.554077 946.494385,709.145996 945.583679,703.985229 
	C942.598877,687.072144 945.065002,669.997986 944.589783,652.997498 
	C944.179321,638.311646 944.324402,623.619690 942.514587,608.998169 
	C938.526855,576.782532 933.413330,544.788940 924.572815,513.479431 
	C923.624512,510.121063 923.264648,506.409760 921.381104,503.579132 
	C918.194946,498.791107 913.268188,496.186829 907.498596,495.512238 
	C889.560608,493.414825 871.560059,492.277374 853.500244,491.985382 
	C837.165833,491.721313 820.834595,491.220093 804.499634,491.034119 
	C790.168152,490.870941 775.824585,490.681976 761.502014,491.073761 
	C739.479309,491.676208 717.445557,492.328918 695.502930,494.529266 
	C692.648193,494.815521 689.812439,495.404755 687.004395,496.019958 
	C681.249084,497.280762 677.760437,501.048645 676.012085,506.503876 
	C671.068848,521.927490 667.215027,537.637329 664.020508,553.504150 
	C659.824646,574.344727 656.676880,595.343811 654.429626,616.492554 
	C653.403503,626.149841 653.281006,635.862427 652.327148,645.482849 
	C651.053528,658.328125 650.964050,671.251892 651.473694,683.981018 
	C651.811340,692.414429 650.469971,700.658813 650.946106,709.003052 
	C651.214172,713.701416 651.629578,718.495972 648.077148,722.567322 
	C646.905518,723.910156 646.861755,726.050537 646.978516,728.001282 
	C647.526855,737.165100 647.856140,746.344177 648.547607,755.496399 
	C649.058167,762.253784 650.123779,769.001282 652.107117,775.467163 
	C653.640259,780.465149 651.762634,785.154724 651.919189,790.002625 
	C652.204041,798.826721 651.916260,807.667725 652.027466,816.499634 
	C652.110901,823.129333 655.388000,825.387146 660.506042,825.113037 
	C668.483154,824.685852 676.500366,825.047180 684.499878,824.982971 
	C689.595947,824.942078 691.930725,822.596069 691.984131,817.499817 
	C692.050476,811.167236 691.979065,804.833191 692.013794,798.500061 
	C692.023132,796.786316 691.539612,794.941284 693.000000,793.500000 
"/>
<path fill="none" opacity="1.000000" stroke="#000000" stroke-linecap="round" stroke-linejoin="round" stroke-width="3.000000"
	d="
M916.500000,763.500000 
	C913.761536,765.279297 910.821716,763.944702 907.999878,763.951111 
	C874.500061,764.027039 841.000000,764.000000 807.500000,764.000000 
	C767.833313,764.000000 728.166687,763.989258 688.500000,764.009827 
	C681.161255,764.013611 673.820801,764.219238 666.500000,763.500000 
"/>
<path fill="none" opacity="1.000000" stroke="#000000" stroke-linecap="round" stroke-linejoin="round" stroke-width="3.000000"
	d="
M360.500000,140.000000 
	C365.578278,144.892929 365.689026,145.008957 360.481079,149.980194 
	C336.159607,173.196274 312.582489,197.125397 290.490601,222.491806 
	C289.564026,223.555740 288.457153,224.461044 287.506958,225.506302 
	C281.466858,232.150620 274.306946,236.423431 265.013306,234.917831 
	C259.217926,233.978973 254.654495,236.237091 249.988434,238.980316 
	C231.998230,249.556992 213.515228,259.297058 196.436752,271.410828 
	C191.756393,274.730621 187.339401,278.302826 183.022751,282.026367 
	C179.406799,285.145447 178.349487,289.536560 176.729843,293.899719 
	C174.680466,299.420502 171.598648,304.561249 170.474319,310.495148 
	C169.427887,316.017914 168.171265,321.500977 166.992432,326.998383 
	C166.882599,327.510559 166.803757,328.124146 166.479919,328.481812 
	C158.751572,337.017731 163.107422,347.440155 162.038620,357.004303 
	C161.821365,358.948364 163.329178,359.999359 164.968689,359.412506 
	C167.362076,358.555756 169.332321,359.654907 171.510010,359.916779 
	C174.455368,360.270996 178.116608,359.345337 179.867874,362.084473 
	C182.538788,366.262085 184.517502,370.923950 186.420486,375.532837 
	C187.339890,377.759613 184.980713,378.738251 183.489243,378.901978 
	C178.188614,379.483948 172.886139,381.022980 167.795059,379.503174 
	C168.893036,372.631836 165.177994,366.549530 164.500000,360.000000 
"/>
<path fill="none" opacity="1.000000" stroke="#000000" stroke-linecap="round" stroke-linejoin="round" stroke-width="3.000000"
	d="
M478.000000,618.500000 
	C473.793823,633.435364 477.659576,648.237427 479.150208,662.984802 
	C481.153107,682.800232 483.806244,702.563599 483.881897,722.500427 
	C483.915405,731.331116 483.045410,740.216431 481.893799,748.986084 
	C480.735046,757.810181 478.975830,766.641541 479.172638,775.496155 
	C479.409821,786.166565 478.922699,796.861755 479.690948,807.486206 
	C479.998291,811.736816 479.265900,815.824829 479.325745,820.002502 
	C479.380371,823.817749 476.306213,825.908447 472.499451,825.961121 
	C463.667816,826.083313 454.832245,826.081238 446.000519,825.962463 
	C442.138519,825.910522 439.544250,822.622131 439.516083,817.999878 
	C439.461243,809.000244 439.500000,800.000000 439.500000,791.000000 
"/>
<path fill="none" opacity="1.000000" stroke="#000000" stroke-linecap="round" stroke-linejoin="round" stroke-width="3.000000"
	d="
M180.000000,778.500000 
	C178.539612,779.941284 179.017365,781.786560 179.013443,783.500061 
	C178.987442,794.833313 178.989883,806.166687 179.004410,817.500000 
	C179.011307,822.890015 181.999390,825.932556 187.500168,825.982056 
	C195.332855,826.052673 203.166809,826.028259 210.999954,825.989502 
	C215.793045,825.965820 218.916290,822.792786 219.000748,818.000000 
	C219.162277,808.833252 218.616104,799.653625 219.500000,790.500000 
"/>
<path fill="none" opacity="1.000000" stroke="#000000" stroke-linecap="round" stroke-linejoin="round" stroke-width="3.000000"
	d="
M170.000000,320.000000 
	C171.000000,320.333313 172.098328,321.121338 172.984787,320.929626 
	C181.836365,319.015472 191.052185,318.931427 199.529343,315.064331 
	C207.754730,311.312073 211.501709,303.597961 216.435883,296.952393 
	C219.228989,293.190521 221.803238,289.171021 222.925980,284.322632 
	C221.680115,281.306427 219.123352,280.988159 216.001465,280.926117 
	C203.813202,280.683899 192.405411,282.833038 182.465973,290.455627 
	C181.384949,291.284668 179.833344,291.500031 178.500000,292.000031 
"/>
<path fill="none" opacity="1.000000" stroke="#000000" stroke-linecap="round" stroke-linejoin="round" stroke-width="3.000000"
	d="
M375.000000,155.000000 
	C375.368011,162.469849 373.484863,169.684448 372.495087,176.999329 
	C369.675751,197.834564 366.884277,218.673859 363.945709,239.492340 
	C363.498444,242.660980 362.798279,245.777008 363.000000,249.000000 
"/>
<path fill="none" opacity="1.000000" stroke="#000000" stroke-linecap="round" stroke-linejoin="round" stroke-width="3.000000"
	d="
M286.500000,791.000000 
	C286.357086,793.666748 288.214722,793.445557 289.999451,793.514038 
	C311.495026,794.339111 332.999512,793.910950 354.500061,793.975525 
	C357.666199,793.985046 360.836090,793.504089 363.999023,793.557800 
	C366.071472,793.592957 367.279114,792.813232 368.000000,791.000000 
"/>
<path fill="none" opacity="1.000000" stroke="#000000" stroke-linecap="round" stroke-linejoin="round" stroke-width="3.000000"
	d="
M180.000000,615.000000 
	C179.572479,604.837585 180.835983,594.627502 179.439453,584.508362 
	C178.574509,578.241211 176.771835,577.131348 170.500687,576.973022 
	C156.874573,576.629028 154.884338,578.680298 153.952133,592.996887 
	C153.539795,599.329590 153.009003,605.641174 152.941757,611.999390 
	C152.878708,617.959900 155.725449,622.726685 161.522247,624.424011 
	C164.604019,625.326294 167.798691,625.995300 170.966629,626.659180 
	C174.398514,627.378418 176.191574,626.193176 177.428268,623.467468 
	C177.718979,622.826660 177.720947,622.635620 178.486557,622.445801 
	C183.071671,621.309143 183.089630,621.178223 181.000000,616.500000 
"/>
<path fill="none" opacity="1.000000" stroke="#000000" stroke-linecap="round" stroke-linejoin="round" stroke-width="3.000000"
	d="
M464.000000,746.500000 
	C465.880859,743.892883 465.474243,742.252319 462.003113,742.537842 
	C456.002716,743.031250 450.072937,744.154236 443.999084,744.059753 
	C439.264923,743.986023 436.473511,746.767334 435.535431,752.006348 
	C435.154327,754.134644 435.146271,756.331970 435.006287,758.500427 
	C434.888733,760.322449 435.081390,761.669983 437.488922,762.067139 
	C443.161346,763.003113 448.935211,763.172668 454.472992,762.323853 
	C461.330627,761.272644 463.694397,752.599182 462.500000,745.500000 
"/>
<path fill="none" opacity="1.000000" stroke="#000000" stroke-linecap="round" stroke-linejoin="round" stroke-width="3.000000"
	d="
M181.000015,610.500000 
	C182.306351,610.082825 183.612686,609.665588 184.753708,609.301147 
	C187.861710,611.527649 186.806091,614.896118 186.294144,616.948669 
	C183.456131,628.327148 182.336243,639.983765 181.266266,651.524658 
	C180.201248,663.012085 179.048203,674.504883 177.968002,685.997009 
	C177.092010,695.316589 177.523788,704.812378 176.198257,713.956238 
	C174.210938,727.665344 176.072876,741.010559 177.008194,754.499451 
	C177.507660,761.702759 178.520645,768.918579 179.823868,775.939880 
	C180.797287,781.184326 185.169830,785.180298 190.966980,787.099731 
	C197.225266,789.171692 203.635757,789.245056 210.002045,789.429260 
	C254.827805,790.726196 299.666840,789.759827 344.500122,789.975342 
	C372.166138,790.108337 399.834106,789.882690 427.499603,790.060425 
	C437.860291,790.127014 448.168335,790.113037 458.511261,789.116821 
	C466.679932,788.330139 473.425140,786.025635 477.000000,778.000000 
"/>
<path fill="none" opacity="1.000000" stroke="#000000" stroke-linecap="round" stroke-linejoin="round" stroke-width="2.000000"
	d="
M494.000000,270.000000 
	C497.791077,273.706696 506.065430,275.185974 509.333252,271.837280 
	C511.602661,269.511688 513.676392,269.126648 516.485962,268.854797 
	C517.924011,268.715729 520.566711,269.011444 520.530762,265.999634 
	C520.495911,263.080963 517.643555,263.270874 516.488403,263.205994 
	C513.447266,263.035126 511.289215,262.130554 508.889374,260.132904 
	C505.427734,257.251434 497.616211,257.789520 494.647675,261.131195 
	C492.951843,263.040192 491.393005,262.868103 489.501221,263.015625 
	C488.494354,263.094116 487.477295,263.250763 486.504974,263.518097 
	C484.760559,263.997681 483.040619,265.011597 483.624725,266.962677 
	C484.044922,268.366333 485.588043,269.154816 487.502899,269.056152 
	C493.661774,268.738678 499.832733,268.607697 506.000458,268.542786 
	C507.485718,268.527130 509.105438,267.884430 510.500000,269.000000 
"/>
<path fill="none" opacity="1.000000" stroke="#000000" stroke-linecap="round" stroke-linejoin="round" stroke-width="4.000000"
	d="
M195.500000,746.500000 
	C197.375534,748.097046 197.051712,750.474182 197.439804,752.511475 
	C198.724915,759.257385 201.705872,762.210754 208.501816,762.447754 
	C212.158234,762.575195 215.838028,762.234375 219.498627,761.980164 
	C222.846848,761.747559 224.507202,759.912292 223.978455,756.503357 
	C223.588058,753.986328 222.834839,751.519165 222.541962,748.995117 
	C222.179291,745.869507 220.109192,744.431335 217.490601,744.067688 
	C211.186279,743.192078 204.839905,742.590820 198.496460,742.040710 
	C196.244263,741.845398 193.179504,741.346191 195.000000,745.500000 
"/>
<path fill="none" opacity="1.000000" stroke="#000000" stroke-linecap="round" stroke-linejoin="round" stroke-width="3.000000"
	d="
M478.000000,626.000000 
	C482.856873,625.483643 487.547668,628.498535 492.519653,626.550110 
	C494.567719,625.747498 496.891571,625.673401 498.989410,624.968506 
	C506.183044,622.551270 507.693298,618.454163 507.354614,612.508301 
	C506.898987,604.508789 507.027008,596.490051 506.113495,588.487061 
	C504.992310,578.665100 501.108826,577.735779 494.999359,577.984619 
	C492.669891,578.079468 490.333069,577.976562 488.000061,578.005188 
	C483.882263,578.055725 481.108490,580.492859 481.035522,584.500671 
	C480.908081,591.498352 481.000000,598.500000 481.000000,605.500000 
	C481.000000,606.000000 480.787750,606.766968 481.031311,606.960632 
	C485.957397,610.876648 481.957611,613.829102 480.000000,617.000000 
"/>
<path fill="none" opacity="1.000000" stroke="#000000" stroke-linecap="round" stroke-linejoin="round" stroke-width="2.000000"
	d="
M412.500000,598.500000 
	C414.887756,596.263611 414.521271,593.426941 414.583466,590.501770 
	C414.699280,585.056702 412.966522,580.079163 411.510254,574.997070 
	C410.476410,571.389160 408.427399,568.859375 404.498077,568.522400 
	C397.838409,567.951172 391.163513,567.633362 384.501862,568.514160 
	C382.441162,568.786682 380.475220,569.255676 379.486603,571.494080 
	C375.749176,579.956482 372.939392,588.562012 375.000000,598.000000 
"/>
<path fill="none" opacity="1.000000" stroke="#000000" stroke-linecap="round" stroke-linejoin="round" stroke-width="2.000000"
	d="
M287.500000,744.000000 
	C289.426453,745.049255 291.518036,744.545166 293.498077,744.456787 
	C313.204803,743.576721 332.823730,746.667053 352.494873,745.873169 
	C362.545715,745.467529 372.557343,746.815063 382.483948,746.228271 
	C390.481110,745.755432 398.470703,745.031494 406.500000,745.000000 
"/>
<path fill="none" opacity="1.000000" stroke="#000000" stroke-linecap="round" stroke-linejoin="round" stroke-width="3.000000"
	d="
M381.500000,1196.500000 
	C366.500000,1199.833374 351.523346,1203.277100 336.490692,1206.455933 
	C328.337585,1208.180054 320.249634,1210.171387 312.028046,1211.655396 
	C302.506805,1213.374023 292.971985,1213.561768 283.519379,1212.769043 
	C277.867432,1212.295044 274.449585,1207.204712 271.497925,1202.501343 
	C267.859192,1196.703247 265.180267,1190.466675 262.953766,1183.924194 
	C238.952255,1181.059692 215.184479,1176.518188 191.500000,1171.500000 
"/>
<path fill="none" opacity="1.000000" stroke="#000000" stroke-linecap="round" stroke-linejoin="round" stroke-width="2.000000"
	d="
M680.500000,538.500000 
	C679.333313,547.333313 678.019836,556.150391 677.038208,565.004211 
	C675.876038,575.486267 674.919067,585.993042 674.019043,596.501648 
	C672.693909,611.975586 673.024658,627.493286 672.995483,643.000000 
	C672.992371,644.654480 673.395874,646.465271 671.500000,647.500000 
"/>
<path fill="none" opacity="1.000000" stroke="#000000" stroke-linecap="round" stroke-linejoin="round" stroke-width="3.000000"
	d="
M409.500000,681.000000 
	C410.216003,679.814697 411.370117,679.896362 412.499451,680.005554 
	C428.494659,681.552063 443.356567,676.176758 458.503723,672.515381 
	C462.991180,671.430664 467.338745,669.997070 471.553436,667.974487 
	C472.701019,668.465637 473.965790,669.273499 473.936646,670.498474 
	C473.722717,679.501343 476.080688,688.536621 473.071594,697.523987 
	C470.802673,704.300598 466.000946,709.101990 459.003632,708.883667 
	C446.181427,708.483521 433.622253,710.418823 420.994324,711.953430 
	C419.536133,712.130554 418.000000,711.666687 416.500000,711.500000 
"/>
<path fill="none" opacity="1.000000" stroke="#000000" stroke-linecap="round" stroke-linejoin="round" stroke-width="3.000000"
	d="
M312.500000,214.500000 
	C313.083008,228.508926 313.631866,242.494202 312.122406,256.513184 
	C311.538910,261.932404 312.434937,267.499207 312.477875,273.000183 
	C312.555908,282.999573 312.502869,293.000000 312.498840,303.000000 
	C312.496735,308.215912 312.484283,313.422974 313.953735,318.513367 
	C314.186890,319.321045 313.402985,319.902985 312.500000,320.000000 
"/>
<path fill="none" opacity="1.000000" stroke="#000000" stroke-linecap="round" stroke-linejoin="round" stroke-width="3.000000"
	d="
M192.000000,936.000000 
	C197.711594,936.563232 202.940659,934.011353 208.486694,933.382629 
	C211.229996,933.071655 213.833328,933.271973 216.808105,932.914978 
	C215.591553,937.258240 211.679504,937.989685 209.457642,940.461914 
	C202.419998,948.292542 195.354172,956.090820 189.000244,964.500183 
	C183.449921,971.845825 177.647873,978.994812 172.938675,986.963745 
	C170.514786,991.065552 165.632294,992.286072 162.000000,995.000000 
"/>
<path fill="none" opacity="1.000000" stroke="#000000" stroke-linecap="round" stroke-linejoin="round" stroke-width="3.000000"
	d="
M405.500000,686.500000 
	C402.551575,684.617798 399.241882,685.004456 396.000000,685.003174 
	C378.666656,684.996460 361.333313,684.985962 344.000031,685.020142 
	C342.133759,685.023865 340.112518,684.452148 338.500000,686.000000 
"/>
<path fill="none" opacity="1.000000" stroke="#000000" stroke-linecap="round" stroke-linejoin="round" stroke-width="2.000000"
	d="
M923.500000,578.999939 
	C924.666687,578.833313 925.834656,578.516785 926.999756,578.527344 
	C930.872681,578.562500 932.211182,576.168945 931.357483,573.038879 
	C930.717773,570.693298 932.059143,567.999207 929.794373,565.896606 
	C926.875488,566.686096 924.998413,569.589783 921.589539,570.204285 
	C924.326904,594.615173 924.783203,618.794800 924.520874,643.000244 
	C924.519104,643.165100 924.833313,643.333313 925.000000,643.500000 
"/>
<path fill="none" opacity="1.000000" stroke="#000000" stroke-linecap="round" stroke-linejoin="round" stroke-width="2.000000"
	d="
M391.500000,760.000000 
	C380.680298,761.052979 369.790894,760.994080 359.016205,760.261536 
	C352.635559,759.827820 346.355560,760.588745 339.986664,760.252686 
	C325.028320,759.463379 309.990021,759.667664 295.003540,760.117798 
	C285.151459,760.413696 275.333344,760.536865 265.500000,760.000000 
"/>
<path fill="none" opacity="1.000000" stroke="#000000" stroke-linecap="round" stroke-linejoin="round" stroke-width="2.000000"
	d="
M205.000000,519.500000 
	C209.772263,518.951172 211.279800,518.910583 209.968018,525.493652 
	C207.240463,539.181396 204.229630,552.813171 201.565598,566.512756 
	C200.803940,570.429443 200.833328,574.500000 200.500000,578.500000 
"/>
<path fill="none" opacity="1.000000" stroke="#000000" stroke-linecap="round" stroke-linejoin="round" stroke-width="3.000000"
	d="
M401.000000,709.000000 
	C382.166473,709.322083 363.339691,710.658386 344.504669,709.885925 
	C338.731049,709.648987 333.183411,711.598083 327.504486,710.960144 
	C306.706360,708.623840 285.811096,710.995911 264.996124,709.556030 
	C262.858307,709.408081 260.666656,708.023987 258.500000,709.500000 
"/>
<path fill="none" opacity="1.000000" stroke="#000000" stroke-linecap="round" stroke-linejoin="round" stroke-width="2.000000"
	d="
M465.500000,720.500000 
	C444.897888,722.809998 424.193054,723.300903 403.500000,724.000000 
"/>
<path fill="none" opacity="1.000000" stroke="#000000" stroke-linecap="round" stroke-linejoin="round" stroke-width="3.000000"
	d="
M840.000000,669.500000 
	C842.857849,668.073608 847.019653,670.558899 849.000000,666.717224 
	C849.000000,666.166687 849.071716,665.560364 848.989807,665.538818 
	C841.589355,663.594788 835.688904,656.583618 826.997009,658.989136 
	C826.687378,659.074829 826.224792,658.859619 826.016174,659.020935 
	C822.324646,661.873718 818.234070,663.465759 813.501587,663.570618 
	C812.056091,663.602661 811.115295,664.946594 811.542847,666.488098 
	C811.992798,668.110107 813.084229,669.099426 815.000854,669.020752 
	C820.498413,668.795044 825.999451,668.643555 831.500244,668.509827 
	C834.208313,668.444031 836.932373,668.374390 839.500000,669.500000 
"/>
<path fill="none" opacity="1.000000" stroke="#000000" stroke-linecap="round" stroke-linejoin="round" stroke-width="3.000000"
	d="
M943.500000,643.500000 
	C939.774231,640.462341 935.802368,638.384705 931.010315,641.018738 
	C925.334290,644.138733 921.892395,648.737976 922.000061,655.500000 
	C922.122437,663.186523 921.415100,670.838440 921.110657,678.504395 
	C920.793884,686.484680 921.489807,694.471008 921.138245,702.506042 
	C920.409912,719.153931 919.503357,735.813293 919.939636,752.501587 
	C920.031738,756.027161 919.986084,759.762512 917.000000,762.500000 
"/>
<path fill="none" opacity="1.000000" stroke="#000000" stroke-linecap="round" stroke-linejoin="round" stroke-width="3.000000"
	d="
M333.500000,938.000000 
	C332.870483,934.593628 334.888550,931.892090 336.082123,929.034302 
	C336.798126,927.319885 338.550079,928.310181 340.005768,928.380493 
	C341.400269,928.447998 347.343384,922.230042 347.416901,920.496460 
	C347.736115,912.969116 352.315186,906.763855 353.636230,899.524841 
	C354.228363,896.279846 353.213440,895.274170 350.498322,895.017944 
	C344.210052,894.424561 339.791138,896.899658 336.382080,902.427246 
	C332.859802,908.138367 330.500671,914.203979 328.500000,920.500000 
"/>
<path fill="none" opacity="1.000000" stroke="#000000" stroke-linecap="round" stroke-linejoin="round" stroke-width="3.000000"
	d="
M321.500000,685.000000 
	C311.000000,684.833374 300.480499,684.198425 290.005615,684.634705 
	C279.994171,685.051697 269.998993,684.768921 259.999817,684.991699 
	C257.501068,685.047363 255.000000,685.000000 252.500000,685.000000 
"/>
<path fill="none" opacity="1.000000" stroke="#000000" stroke-linecap="round" stroke-linejoin="round" stroke-width="3.000000"
	d="
M242.000000,710.500000 
	C234.928970,711.658142 227.955612,711.008179 220.993668,709.529846 
	C217.548843,708.798401 214.160339,708.287720 210.479462,708.870239 
	C204.371033,709.837158 198.275986,708.599426 192.520538,706.445129 
	C186.202972,704.080383 184.674805,698.112610 184.178864,692.484253 
	C183.567032,685.540771 183.253220,678.442261 184.975342,671.493896 
	C185.621384,668.887146 185.854767,667.614685 189.562195,668.806519 
	C201.058792,672.502197 212.812790,675.412109 224.509766,678.462524 
	C229.451370,679.751343 232.525314,682.423523 234.091995,687.471436 
	C236.402313,694.915344 238.821136,702.411560 242.170929,709.418274 
	C244.610962,714.522034 247.343369,720.160278 254.000977,721.495178 
	C255.024948,721.700500 256.226746,721.566528 256.500000,723.000000 
"/>
<path fill="none" opacity="1.000000" stroke="#000000" stroke-linecap="round" stroke-linejoin="round" stroke-width="2.000000"
	d="
M287.500000,598.500000 
	C291.858032,591.392273 288.264587,584.416199 286.896301,577.520569 
	C285.784973,571.920105 283.334900,567.906067 275.988281,568.248108 
	C269.481049,568.551147 262.918213,567.571594 256.500000,569.500000 
"/>
<path fill="none" opacity="1.000000" stroke="#000000" stroke-linecap="round" stroke-linejoin="round" stroke-width="3.000000"
	d="
M799.500000,497.500000 
	C807.145874,498.623810 814.836182,497.697876 822.500244,497.993713 
	C823.665222,498.038666 824.871094,497.815918 825.990662,498.045502 
	C827.464050,498.347656 828.224487,499.402710 828.001160,501.000153 
	C827.786072,502.538574 826.682495,502.571259 825.499756,502.504700 
	C825.001343,502.476654 824.500000,502.500000 824.000000,502.500000 
	C814.666687,502.500000 805.332764,502.561920 796.000183,502.479126 
	C789.332520,502.419983 782.666748,502.164276 775.999939,502.001862 
	C774.570435,501.967041 772.966858,502.393036 772.966858,500.000000 
	C772.966858,497.606964 774.570190,498.004730 776.000000,498.003021 
	C782.000000,497.995911 788.000122,498.019104 793.999939,497.987671 
	C795.674744,497.978882 797.396790,498.301270 799.000000,497.500000 
"/>
<path fill="none" opacity="1.000000" stroke="#000000" stroke-linecap="round" stroke-linejoin="round" stroke-width="2.000000"
	d="
M379.000000,754.000000 
	C372.184265,754.887634 365.334106,754.365845 358.499969,754.497803 
	C357.666931,754.513916 356.288025,754.812073 356.082458,754.452820 
	C353.343994,749.667664 348.784393,751.619019 344.999176,751.579956 
	C327.501038,751.399048 309.999939,751.478210 292.500122,751.535278 
	C290.842926,751.540649 289.077454,750.941284 287.500000,752.000000 
"/>
<path fill="none" opacity="1.000000" stroke="#000000" stroke-linecap="round" stroke-linejoin="round" stroke-width="2.000000"
	d="
M198.500015,619.500000 
	C199.333344,630.833313 200.156448,642.167480 201.004074,653.499695 
	C201.466919,659.687622 203.169662,665.742920 203.000000,672.000000 
"/>
<path fill="none" opacity="1.000000" stroke="#000000" stroke-linecap="round" stroke-linejoin="round" stroke-width="3.000000"
	d="
M161.000000,1161.500000 
	C159.124893,1162.462891 157.730896,1162.712646 158.795731,1166.064941 
	C164.283127,1183.339722 171.099075,1199.766113 184.021774,1212.978760 
	C184.675003,1213.646606 184.399307,1214.316895 184.500000,1215.000000 
"/>
<path fill="none" opacity="1.000000" stroke="#000000" stroke-linecap="round" stroke-linejoin="round" stroke-width="2.000000"
	d="
M301.000000,752.500000 
	C301.538361,755.064270 304.183685,754.927673 305.491089,754.849976 
	C321.494232,753.898865 337.501984,754.852600 353.499542,754.480347 
	C354.003143,754.468628 354.500000,754.166626 355.000000,753.999939 
"/>
<path fill="none" opacity="1.000000" stroke="#000000" stroke-linecap="round" stroke-linejoin="round" stroke-width="2.000000"
	d="
M459.500000,628.500000 
	C459.570099,641.681152 457.240875,654.590454 454.915649,667.484802 
	C454.578033,669.356934 454.552521,671.156311 454.500000,673.000000 
"/>
<path fill="none" opacity="1.000000" stroke="#000000" stroke-linecap="round" stroke-linejoin="round" stroke-width="2.000000"
	d="
M314.500000,211.500000 
	C299.682800,225.134537 286.899445,240.620102 273.779572,255.799377 
	C273.873138,256.222870 273.966705,256.646393 274.060303,257.069885 
	C286.873535,256.046600 299.686768,255.023285 312.500000,253.999985 
"/>
<path fill="none" opacity="1.000000" stroke="#000000" stroke-linecap="round" stroke-linejoin="round" stroke-width="3.000000"
	d="
M331.000000,215.500000 
	C328.660950,216.655228 326.095520,217.196396 323.942871,218.929031 
	C321.571869,220.837402 320.165680,223.046326 320.021973,226.001068 
	C319.827423,230.000824 321.080139,234.210709 316.591278,237.139877 
	C314.973724,238.195374 315.851227,241.052155 316.087189,242.989380 
	C316.466248,246.101578 318.127563,246.113907 321.092102,245.364105 
	C322.314362,245.054962 324.912170,248.096069 327.499176,248.505188 
	C335.022308,249.694946 339.592529,245.737534 340.045135,238.002640 
	C340.399933,231.938751 339.457855,225.985901 338.924225,220.006760 
	C338.574585,216.088837 336.027069,214.295441 332.000000,215.000000 
"/>
<path fill="none" opacity="1.000000" stroke="#000000" stroke-linecap="round" stroke-linejoin="round" stroke-width="3.000000"
	d="
M653.500000,641.500000 
	C660.251953,637.135498 669.216187,640.980896 671.966187,649.510925 
	C672.532898,651.268982 672.940430,653.164490 672.955200,655.000366 
	C673.045044,666.166321 672.436829,677.367737 673.117249,688.492859 
	C674.533630,711.650452 673.508850,734.855591 674.917603,758.005005 
	C675.035095,759.935303 675.862671,761.374512 676.500000,763.000000 
"/>
<path fill="none" opacity="1.000000" stroke="#000000" stroke-linecap="round" stroke-linejoin="round" stroke-width="2.000000"
	d="
M330.500000,747.000000 
	C319.347900,748.142944 308.164642,747.189636 296.999786,747.491577 
	C294.834686,747.550171 292.666656,747.500000 290.500000,747.500000 
"/>
<path fill="none" opacity="1.000000" stroke="#000000" stroke-linecap="round" stroke-linejoin="round" stroke-width="3.000000"
	d="
M777.500000,794.000000 
	C778.332825,797.767334 781.112183,798.937988 784.500305,798.973755 
	C792.332703,799.056396 800.174255,798.794861 807.996887,799.083679 
	C812.113586,799.235596 813.070679,795.246399 816.000000,794.000000 
"/>
<path fill="none" opacity="1.000000" stroke="#000000" stroke-linecap="round" stroke-linejoin="round" stroke-width="3.000000"
	d="
M655.000000,605.500000 
	C651.633423,603.933960 648.407288,605.719421 645.575867,606.715576 
	C641.947449,607.992126 641.683167,611.896912 641.963196,615.502869 
	C642.039429,616.484009 641.531433,617.498718 641.521729,618.500183 
	C641.452759,625.665161 641.845947,627.893738 652.000000,629.500000 
"/>
<path fill="none" opacity="1.000000" stroke="#000000" stroke-linecap="round" stroke-linejoin="round" stroke-width="2.000000"
	d="
M914.499939,518.500000 
	C915.666626,525.833313 917.007812,533.144592 917.941467,540.507385 
	C918.614441,545.814575 919.925415,551.079895 919.500000,556.500000 
"/>
<path fill="none" opacity="1.000000" stroke="#000000" stroke-linecap="round" stroke-linejoin="round" stroke-width="2.000000"
	d="
M215.500000,331.500000 
	C202.817612,331.235779 190.193985,333.204803 177.500000,332.500000 
"/>
<path fill="none" opacity="1.000000" stroke="#000000" stroke-linecap="round" stroke-linejoin="round" stroke-width="2.000000"
	d="
M913.500000,765.000000 
	C913.930359,766.763733 912.411316,766.931396 911.499878,766.932617 
	C908.918884,766.936218 908.420715,768.506775 908.528442,770.498474 
	C908.651978,772.782410 910.445251,772.503662 912.000000,772.501770 
	C916.166687,772.496765 920.333740,772.464844 924.499817,772.516357 
	C926.295410,772.538574 927.525330,772.171875 927.525330,770.000000 
	C927.525330,767.828125 926.287781,767.539917 924.501465,767.465454 
	C921.167664,767.326538 917.788086,768.071655 914.500000,767.000000 
"/>
<path fill="none" opacity="1.000000" stroke="#000000" stroke-linecap="round" stroke-linejoin="round" stroke-width="3.000000"
	d="
M943.000000,605.500000 
	C944.333313,605.666626 945.664429,605.955505 947.000366,605.979919 
	C954.884583,606.123901 956.008240,607.166443 956.497375,615.000183 
	C956.518066,615.332153 956.497986,615.666687 956.500305,616.000000 
	C956.589417,628.503845 956.707092,627.569885 945.000000,630.500000 
"/>
<path fill="none" opacity="1.000000" stroke="#000000" stroke-linecap="round" stroke-linejoin="round" stroke-width="2.000000"
	d="
M483.000000,922.000000 
	C486.159851,927.763123 486.991547,934.169800 487.959320,940.506226 
	C488.667206,945.141174 488.722626,949.888611 489.636597,954.472778 
	C490.001862,956.305054 489.369415,957.833313 489.500000,959.500000 
"/>
<path fill="none" opacity="1.000000" stroke="#000000" stroke-linecap="round" stroke-linejoin="round" stroke-width="2.000000"
	d="
M297.500000,600.500000 
	C285.474091,597.787354 273.293610,596.929932 261.000305,597.506653 
	C254.398102,597.816345 247.850983,598.906006 241.545013,600.661682 
	C237.294327,601.845154 233.963715,604.944214 233.469589,609.997009 
	C233.337265,611.349976 232.833344,612.666687 232.500015,614.000000 
"/>
<path fill="none" opacity="1.000000" stroke="#000000" stroke-linecap="round" stroke-linejoin="round" stroke-width="3.000000"
	d="
M326.000000,1232.500000 
	C322.435211,1234.345825 321.853973,1237.552734 322.548615,1240.990234 
	C323.702118,1246.698608 325.908417,1252.021606 328.971130,1257.017700 
	C331.923065,1261.833130 336.334686,1262.874512 341.502014,1262.530029 
	C343.231445,1262.414917 344.345795,1262.177734 344.025818,1259.996216 
	C342.853455,1252.002441 340.889771,1244.186646 338.421265,1236.525391 
	C337.190826,1232.706543 334.308685,1230.718018 329.999756,1231.999146 
	C325.449005,1233.352417 323.944672,1229.821899 322.000000,1227.000000 
"/>
<path fill="none" opacity="1.000000" stroke="#000000" stroke-linecap="round" stroke-linejoin="round" stroke-width="2.000000"
	d="
M488.500000,1204.500000 
	C487.745911,1215.352173 486.749695,1226.159668 483.034729,1236.512451 
	C482.769806,1237.250732 483.000000,1238.166626 483.000000,1239.000000 
"/>
<path fill="none" opacity="1.000000" stroke="#000000" stroke-linecap="round" stroke-linejoin="round" stroke-width="2.000000"
	d="
M455.000000,521.500000 
	C452.521790,526.592102 454.543396,531.902710 454.755127,536.989380 
	C455.010742,543.128906 456.399536,549.272095 456.500000,555.500000 
"/>
<path fill="none" opacity="1.000000" stroke="#000000" stroke-linecap="round" stroke-linejoin="round" stroke-width="2.000000"
	d="
M813.000000,795.000000 
	C804.017761,793.875305 794.996216,794.838013 786.000977,794.476074 
	C784.167542,794.402344 782.255981,795.017334 780.500000,794.000000 
"/>
<path fill="none" opacity="1.000000" stroke="#000000" stroke-linecap="round" stroke-linejoin="round" stroke-width="3.000000"
	d="
M251.000000,690.500000 
	C251.454102,696.019714 253.057724,697.844849 258.494690,697.430237 
	C271.997589,696.400513 285.501404,697.370422 299.001160,697.048096 
	C304.327484,696.920898 309.666656,697.333374 315.000000,697.500000 
"/>
<path fill="none" opacity="1.000000" stroke="#000000" stroke-linecap="round" stroke-linejoin="round" stroke-width="3.000000"
	d="
M408.000000,689.500000 
	C400.000000,689.833374 391.993439,690.055115 384.001465,690.524963 
	C370.509735,691.318237 356.991913,690.838867 343.459900,691.031677 
	C344.013763,697.500000 344.016785,697.623047 349.999420,697.476318 
	C366.167786,697.079895 382.325348,696.661377 398.509247,697.242615 
	C400.748749,697.323059 403.495941,696.802979 406.000000,696.500000 
"/>
<path fill="none" opacity="1.000000" stroke="#000000" stroke-linecap="round" stroke-linejoin="round" stroke-width="2.000000"
	d="
M206.500000,312.000000 
	C214.228882,317.432770 222.887924,321.238220 230.991135,326.015045 
	C232.221481,326.740356 233.333328,327.666656 234.500000,328.500000 
"/>
<path fill="none" opacity="1.000000" stroke="#000000" stroke-linecap="round" stroke-linejoin="round" stroke-width="2.000000"
	d="
M403.500000,597.500000 
	C391.067932,597.282104 378.624573,596.925232 366.500000,600.500000 
"/>
<path fill="none" opacity="1.000000" stroke="#000000" stroke-linecap="round" stroke-linejoin="round" stroke-width="2.000000"
	d="
M254.500000,571.500000 
	C250.985550,578.589355 249.110580,586.010010 249.389725,594.003845 
	C249.444489,595.571533 250.624100,596.552307 250.500000,598.000000 
"/>
<path fill="none" opacity="1.000000" stroke="#000000" stroke-linecap="round" stroke-linejoin="round" stroke-width="3.000000"
	d="
M404.000000,702.000000 
	C385.666656,702.500000 367.333649,703.011475 348.999542,703.482422 
	C347.166229,703.529419 345.326630,703.330688 343.097321,703.227966 
	C342.953339,705.715027 340.052917,706.664673 339.000000,709.000000 
"/>
<path fill="none" opacity="1.000000" stroke="#000000" stroke-linecap="round" stroke-linejoin="round" stroke-width="2.000000"
	d="
M682.500000,765.500000 
	C682.913635,767.376526 685.063904,768.384705 685.001343,771.001770 
	C682.764099,773.705750 679.391479,772.303406 676.496887,772.428162 
	C673.176941,772.571350 669.825439,771.953125 666.502808,772.076111 
	C664.337280,772.156250 664.365051,770.457764 664.106384,769.472107 
	C663.691772,767.892334 664.712708,767.082703 666.497070,766.958313 
	C671.505432,766.609131 676.500000,768.532776 681.500000,767.000000 
"/>
<path fill="none" opacity="1.000000" stroke="#000000" stroke-linecap="round" stroke-linejoin="round" stroke-width="2.000000"
	d="
M300.500000,754.000000 
	C295.766388,754.603699 291.219299,754.941528 286.428040,753.197693 
	C283.136688,751.999817 279.166656,752.666626 275.500000,752.500000 
"/>
<path fill="none" opacity="1.000000" stroke="#000000" stroke-linecap="round" stroke-linejoin="round" stroke-width="4.000000"
	d="
M73.500000,53.000000 
	C72.589157,53.422493 71.767372,53.413395 71.372833,54.967720 
	C70.039864,60.219090 68.034737,65.296227 66.565842,70.518517 
	C65.989502,72.567543 65.249084,74.282784 63.500000,75.500000 
"/>
<path fill="none" opacity="1.000000" stroke="#000000" stroke-linecap="round" stroke-linejoin="round" stroke-width="2.000000"
	d="
M405.500000,596.500000 
	C408.604980,598.261169 412.046143,599.073059 415.505493,599.449402 
	C425.579315,600.545166 429.059601,603.923096 430.000000,614.000000 
"/>
<path fill="none" opacity="1.000000" stroke="#000000" stroke-linecap="round" stroke-linejoin="round" stroke-width="2.000000"
	d="
M379.000000,751.500000 
	C371.169342,751.792297 363.313232,750.889221 355.500000,752.000000 
"/>
<path fill="none" opacity="1.000000" stroke="#000000" stroke-linecap="round" stroke-linejoin="round" stroke-width="2.000000"
	d="
M463.500000,1238.000000 
	C463.787994,1235.621094 462.155518,1235.796265 460.512817,1235.440674 
	C453.985931,1234.028442 447.822418,1236.361572 441.500000,1237.000000 
"/>
<path fill="none" opacity="1.000000" stroke="#000000" stroke-linecap="round" stroke-linejoin="round" stroke-width="2.000000"
	d="
M441.000000,922.000000 
	C443.517212,925.301208 447.394287,923.159912 450.595062,924.210266 
	C454.362366,925.446411 458.845856,924.500000 463.268890,924.500000 
	C462.674652,923.329224 462.337341,922.664612 462.000000,922.000000 
"/>
<path fill="none" opacity="1.000000" stroke="#000000" stroke-linecap="round" stroke-linejoin="round" stroke-width="2.000000"
	d="
M968.000000,950.000000 
	C962.310547,957.889404 954.400879,963.861389 949.000000,972.000000 
"/>
<path fill="none" opacity="1.000000" stroke="#000000" stroke-linecap="round" stroke-linejoin="round" stroke-width="5.000000"
	d="
M120.000000,51.500000 
	C119.833336,60.166668 119.666672,68.833336 119.500000,77.500000 
"/>
<path fill="none" opacity="1.000000" stroke="#000000" stroke-linecap="round" stroke-linejoin="round" stroke-width="3.000000"
	d="
M963.000000,298.500000 
	C955.687988,297.396271 948.330505,298.290161 941.000000,298.000000 
"/>
<path fill="none" opacity="1.000000" stroke="#000000" stroke-linecap="round" stroke-linejoin="round" stroke-width="3.000000"
	d="
M922.000000,698.500000 
	C929.333313,699.327026 936.666687,699.327026 944.000000,698.500000 
"/>
<path fill="none" opacity="1.000000" stroke="#000000" stroke-linecap="round" stroke-linejoin="round" stroke-width="5.000000"
	d="
M103.500000,52.500000 
	C103.166664,60.833332 102.833328,69.166664 102.500000,77.500000 
"/>
<path fill="none" opacity="1.000000" stroke="#000000" stroke-linecap="round" stroke-linejoin="round" stroke-width="4.000000"
	d="
M55.499996,53.500000 
	C57.166664,58.333336 59.317432,63.068054 60.329185,68.034798 
	C60.999588,71.325798 62.503830,74.058800 63.750000,77.000000 
"/>
<path fill="none" opacity="1.000000" stroke="#000000" stroke-linecap="round" stroke-linejoin="round" stroke-width="2.000000"
	d="
M948.500000,936.500000 
	C958.184937,936.896545 962.855408,942.809021 965.000000,951.500000 
"/>
<path fill="none" opacity="1.000000" stroke="#000000" stroke-linecap="round" stroke-linejoin="round" stroke-width="2.000000"
	d="
M943.500000,687.500000 
	C936.539429,685.677429 929.517700,686.423340 922.500000,687.000000 
"/>
<path fill="none" opacity="1.000000" stroke="#000000" stroke-linecap="round" stroke-linejoin="round" stroke-width="2.000000"
	d="
M938.500000,763.500000 
	C931.500000,763.666687 924.500000,763.833374 917.500000,764.000000 
"/>
<path fill="none" opacity="1.000000" stroke="#000000" stroke-linecap="round" stroke-linejoin="round" stroke-width="3.000000"
	d="
M451.500000,264.000000 
	C453.695740,264.144318 455.824127,263.922119 458.068512,264.830811 
	C459.627197,265.461914 460.910217,265.625824 460.445953,267.486511 
	C460.105804,268.849792 459.300323,270.046417 457.499725,270.016846 
	C454.000671,269.959320 450.500000,270.000000 447.000000,270.000000 
	C440.500000,270.000000 433.999969,270.009521 427.500031,269.991486 
	C426.281158,269.988129 424.772614,270.428375 424.503998,268.499451 
	C424.237732,266.587341 425.304504,266.403046 426.949280,265.849335 
	C429.495575,264.992157 431.940063,264.970032 434.500092,264.982910 
	C440.018341,265.010712 445.557495,265.281799 451.000000,264.000000 
"/>
<path fill="none" opacity="1.000000" stroke="#000000" stroke-linecap="round" stroke-linejoin="round" stroke-width="3.000000"
	d="
M252.000000,681.000000 
	C249.557800,678.870972 246.660339,680.235413 243.995697,680.068726 
	C239.845276,679.809021 235.666672,680.000000 231.500000,680.000000 
"/>
<path fill="none" opacity="1.000000" stroke="#000000" stroke-linecap="round" stroke-linejoin="round" stroke-width="3.000000"
	d="
M652.500000,698.000000 
	C659.294189,699.770813 666.146912,699.142700 673.000000,698.500000 
"/>
<path fill="none" opacity="1.000000" stroke="#000000" stroke-linecap="round" stroke-linejoin="round" stroke-width="3.000000"
	d="
M104.500000,55.500000 
	C109.761955,58.571392 110.877228,64.701408 114.376945,69.097954 
	C115.661736,70.711967 116.196144,72.862686 118.500000,73.500000 
"/>
<path fill="none" opacity="1.000000" stroke="#000000" stroke-linecap="round" stroke-linejoin="round" stroke-width="3.000000"
	d="
M672.500000,687.500000 
	C665.833313,685.758545 659.166687,684.854187 652.500000,687.500000 
"/>
<path fill="none" opacity="1.000000" stroke="#000000" stroke-linecap="round" stroke-linejoin="round" stroke-width="2.000000"
	d="
M821.500000,670.000000 
	C826.245789,674.845093 833.753418,674.845093 840.000000,670.000000 
"/>
<path fill="none" opacity="1.000000" stroke="#000000" stroke-linecap="round" stroke-linejoin="round" stroke-width="2.000000"
	d="
M949.000000,1192.500000 
	C951.180420,1197.538208 955.943115,1200.219604 959.512817,1203.987915 
	C961.378967,1205.957886 963.377563,1207.802490 965.067139,1209.459229 
	C962.398010,1217.650146 958.429504,1223.888306 949.500000,1225.000000 
"/>
<path fill="none" opacity="1.000000" stroke="#000000" stroke-linecap="round" stroke-linejoin="round" stroke-width="2.000000"
	d="
M433.000000,271.000000 
	C437.703522,276.393433 444.967438,276.393433 451.000000,271.000000 
"/>
<path fill="none" opacity="1.000000" stroke="#000000" stroke-linecap="round" stroke-linejoin="round" stroke-width="2.000000"
	d="
M685.500000,512.500000 
	C685.671448,517.124146 683.718567,521.412476 683.217773,525.968994 
	C683.027161,527.703430 682.890930,529.677124 682.500000,531.500000 
"/>
<path fill="none" opacity="1.000000" stroke="#000000" stroke-linecap="round" stroke-linejoin="round" stroke-width="3.000000"
	d="
M331.500000,196.000000 
	C330.862823,202.333328 330.561279,208.666672 331.500000,215.000000 
"/>
<path fill="none" opacity="1.000000" stroke="#000000" stroke-linecap="round" stroke-linejoin="round" stroke-width="2.000000"
	d="
M675.500000,568.000000 
	C673.003845,567.319275 670.507690,566.638550 667.735229,565.882446 
	C665.988037,569.460510 665.972412,573.193237 666.014160,577.827942 
	C669.258301,576.600464 671.651550,579.120911 674.500000,578.000000 
"/>
<path fill="none" opacity="1.000000" stroke="#000000" stroke-linecap="round" stroke-linejoin="round" stroke-width="3.000000"
	d="
M238.500000,797.000000 
	C232.333328,797.000000 226.166672,797.000000 220.000000,797.000000 
"/>
<path fill="none" opacity="1.000000" stroke="#000000" stroke-linecap="round" stroke-linejoin="round" stroke-width="2.000000"
	d="
M451.000000,263.500000 
	C445.750427,259.074432 437.812195,259.294952 433.000000,264.000000 
"/>
<path fill="none" opacity="1.000000" stroke="#000000" stroke-linecap="round" stroke-linejoin="round" stroke-width="2.000000"
	d="
M839.500000,663.000000 
	C833.833313,663.812561 828.166687,663.812561 822.500000,663.000000 
"/>
<path fill="none" opacity="1.000000" stroke="#000000" stroke-linecap="round" stroke-linejoin="round" stroke-width="2.000000"
	d="
M946.500000,721.000000 
	C940.860901,722.104248 935.163025,721.210449 929.500000,721.500000 
"/>
<path fill="none" opacity="1.000000" stroke="#000000" stroke-linecap="round" stroke-linejoin="round" stroke-width="3.000000"
	d="
M223.500000,790.500000 
	C223.700912,793.671692 226.093933,792.980347 228.000015,792.982605 
	C231.868225,792.987122 235.566391,793.641174 239.000000,795.500000 
"/>
<path fill="none" opacity="1.000000" stroke="#000000" stroke-linecap="round" stroke-linejoin="round" stroke-width="2.000000"
	d="
M510.500000,263.000000 
	C505.166656,263.823029 499.833344,263.823029 494.500000,263.000000 
"/>
<path fill="none" opacity="1.000000" stroke="#000000" stroke-linecap="round" stroke-linejoin="round" stroke-width="3.000000"
	d="
M403.500000,756.500000 
	C403.853882,760.050232 400.780701,759.711731 398.988403,759.854980 
	C396.715118,760.036621 393.955109,761.083618 392.077362,758.932495 
	C391.395996,758.151917 392.709320,757.709290 393.500000,757.500000 
"/>
<path fill="none" opacity="1.000000" stroke="#000000" stroke-linecap="round" stroke-linejoin="round" stroke-width="4.000000"
	d="
M85.500000,53.500000 
	C89.226494,56.833675 89.500496,61.793446 90.772552,66.067688 
	C91.876450,69.776817 93.877312,73.152191 94.531738,76.994591 
	C94.740051,78.217682 95.879135,77.150116 96.500000,77.500000 
"/>
<path fill="none" opacity="1.000000" stroke="#000000" stroke-linecap="round" stroke-linejoin="round" stroke-width="5.000000"
	d="
M342.500000,691.000000 
	C337.429413,683.758606 330.398956,684.160767 323.000000,686.000000 
"/>
<path fill="none" opacity="1.000000" stroke="#000000" stroke-linecap="round" stroke-linejoin="round" stroke-width="3.000000"
	d="
M478.500000,612.500000 
	C477.881256,614.166687 477.744568,615.833313 478.510498,617.339233 
	C484.166656,618.837280 489.833344,617.543579 495.500000,617.500000 
"/>
<path fill="none" opacity="1.000000" stroke="#000000" stroke-linecap="round" stroke-linejoin="round" stroke-width="2.000000"
	d="
M394.000000,751.000000 
	C389.233093,752.296692 384.277252,750.853516 379.500000,751.763794 
	C379.500000,752.333313 379.359070,752.843323 379.521576,752.972961 
	C381.354187,754.435059 393.428955,755.287415 394.974609,753.970215 
	C396.228882,752.901184 395.507812,751.859802 394.500000,751.000000 
"/>
<path fill="none" opacity="1.000000" stroke="#000000" stroke-linecap="round" stroke-linejoin="round" stroke-width="2.000000"
	d="
M178.500000,1215.500000 
	C184.827469,1215.219604 190.464874,1215.733521 194.697784,1221.863403 
	C197.109207,1225.355469 202.399551,1226.169556 205.500000,1229.500000 
"/>
<path fill="none" opacity="1.000000" stroke="#000000" stroke-linecap="round" stroke-linejoin="round" stroke-width="4.000000"
	d="
M85.000000,54.500000 
	C81.020836,60.611980 80.549164,68.037949 77.515442,74.507240 
	C77.070938,75.455109 76.833328,76.500000 76.499992,77.500000 
"/>
<path fill="none" opacity="1.000000" stroke="#000000" stroke-linecap="round" stroke-linejoin="round" stroke-width="2.000000"
	d="
M424.500000,796.500000 
	C429.090088,798.810791 433.843597,796.546204 438.500000,797.000000 
"/>
<path fill="none" opacity="1.000000" stroke="#000000" stroke-linecap="round" stroke-linejoin="round" stroke-width="2.000000"
	d="
M178.000000,617.000000 
	C173.166672,618.696045 168.333328,616.559082 163.500000,617.000000 
"/>
<path fill="none" opacity="1.000000" stroke="#000000" stroke-linecap="round" stroke-linejoin="round" stroke-width="3.000000"
	d="
M889.000000,794.000000 
	C890.651978,797.843689 893.835571,798.343506 897.502563,798.030212 
	C899.488098,797.860535 901.500000,798.000000 903.500000,798.000000 
"/>
<path fill="none" opacity="1.000000" stroke="#000000" stroke-linecap="round" stroke-linejoin="round" stroke-width="2.000000"
	d="
M496.500000,620.500000 
	C492.367584,622.378174 487.460541,620.228149 483.500000,623.000000 
"/>
<path fill="none" opacity="1.000000" stroke="#000000" stroke-linecap="round" stroke-linejoin="round" stroke-width="2.000000"
	d="
M176.500000,622.000000 
	C172.166672,621.500000 167.833328,621.000000 163.500000,620.500000 
"/>
<path fill="none" opacity="1.000000" stroke="#000000" stroke-linecap="round" stroke-linejoin="round" stroke-width="2.000000"
	d="
M274.500000,752.000000 
	C270.767456,749.514954 266.830841,751.769043 262.996185,751.575806 
	C258.677338,751.358276 254.304443,751.082153 250.000000,752.000000 
"/>
<path fill="none" opacity="1.000000" stroke="#000000" stroke-linecap="round" stroke-linejoin="round" stroke-width="2.000000"
	d="
M300.500000,602.500000 
	C304.917023,605.191895 305.071289,609.551819 305.000000,614.000000 
"/>
<path fill="none" opacity="1.000000" stroke="#000000" stroke-linecap="round" stroke-linejoin="round" stroke-width="2.000000"
	d="
M280.500000,747.500000 
	C271.166656,747.500000 261.833344,747.500000 252.500000,747.500000 
"/>
<path fill="none" opacity="1.000000" stroke="#000000" stroke-linecap="round" stroke-linejoin="round" stroke-width="3.000000"
	d="
M274.500000,753.000000 
	C271.075928,755.279114 267.028381,752.985840 263.500000,754.500000 
"/>
<path fill="none" opacity="1.000000" stroke="#000000" stroke-linecap="round" stroke-linejoin="round" stroke-width="2.000000"
	d="
M691.000000,496.500000 
	C690.272095,500.306274 687.247253,503.381714 687.500000,507.500000 
"/>
<path fill="none" opacity="1.000000" stroke="#000000" stroke-linecap="round" stroke-linejoin="round" stroke-width="2.000000"
	d="
M305.000000,921.000000 
	C305.870819,923.778870 308.050995,925.558289 310.012024,927.487793 
	C311.158264,928.615479 312.460236,929.603210 312.000000,931.500000 
"/>
<path fill="none" opacity="1.000000" stroke="#000000" stroke-linecap="round" stroke-linejoin="round" stroke-width="3.000000"
	d="
M321.000000,1226.000000 
	C317.483612,1226.101074 313.936035,1226.077515 311.000000,1228.500000 
"/>
<path fill="none" opacity="1.000000" stroke="#000000" stroke-linecap="round" stroke-linejoin="round" stroke-width="3.000000"
	d="
M858.500000,390.500000 
	C861.788086,391.571655 865.171265,390.740845 868.500000,391.000000 
"/>
<path fill="none" opacity="1.000000" stroke="#000000" stroke-linecap="round" stroke-linejoin="round" stroke-width="3.000000"
	d="
M224.000000,391.500000 
	C220.711731,392.567963 217.328842,391.743439 214.000000,392.000000 
"/>
<path fill="none" opacity="1.000000" stroke="#000000" stroke-linecap="round" stroke-linejoin="round" stroke-width="2.000000"
	d="
M506.500000,611.000000 
	C502.408569,612.385498 501.262207,616.196350 499.500000,619.500000 
"/>
<path fill="none" opacity="1.000000" stroke="#000000" stroke-linecap="round" stroke-linejoin="round" stroke-width="4.000000"
	d="
M80.500000,69.000000 
	C83.833336,69.792007 87.166664,69.792007 90.500000,69.000000 
"/>
<path fill="none" opacity="1.000000" stroke="#000000" stroke-linecap="round" stroke-linejoin="round" stroke-width="3.000000"
	d="
M325.000000,392.000000 
	C328.166656,392.000000 331.333344,392.000000 334.500000,392.000000 
"/>
<path fill="none" opacity="1.000000" stroke="#000000" stroke-linecap="round" stroke-linejoin="round" stroke-width="2.000000"
	d="
M260.000000,791.000000 
	C260.398987,795.031982 264.922638,795.489258 266.500000,798.500000 
"/>
<path fill="none" opacity="1.000000" stroke="#000000" stroke-linecap="round" stroke-linejoin="round" stroke-width="2.000000"
	d="
M310.000000,1229.000000 
	C307.215607,1230.872437 304.421814,1232.737427 304.000000,1236.500000 
"/>
<path fill="none" opacity="1.000000" stroke="#000000" stroke-linecap="round" stroke-linejoin="round" stroke-width="2.000000"
	d="
M334.500000,1218.000000 
	C336.381866,1223.059326 332.226288,1222.966919 329.482147,1223.382080 
	C327.083893,1223.745117 324.680908,1223.788696 322.500000,1225.000000 
"/>
<path fill="none" opacity="1.000000" stroke="#000000" stroke-linecap="round" stroke-linejoin="round" stroke-width="3.000000"
	d="
M262.500000,756.500000 
	C263.646423,756.775330 264.702545,757.163513 265.071930,758.701599 
	C263.941101,760.818298 262.183228,759.991150 260.500000,759.500000 
"/>
<path fill="none" opacity="1.000000" stroke="#000000" stroke-linecap="round" stroke-linejoin="round" stroke-width="2.000000"
	d="
M405.500000,750.500000 
	C402.533966,752.739441 399.101654,750.549133 396.000000,751.500000 
"/>
<path fill="none" opacity="1.000000" stroke="#000000" stroke-linecap="round" stroke-linejoin="round" stroke-width="2.000000"
	d="
M359.500000,606.500000 
	C359.000000,609.000000 358.500000,611.500000 358.000000,614.000000 
"/>
<path fill="none" opacity="1.000000" stroke="#000000" stroke-linecap="round" stroke-linejoin="round" stroke-width="2.000000"
	d="
M154.000000,611.000000 
	C156.714249,611.952393 159.147720,613.185608 159.500000,616.500000 
"/>
<path fill="none" opacity="1.000000" stroke="#000000" stroke-linecap="round" stroke-linejoin="round" stroke-width="2.000000"
	d="
M402.000000,793.000000 
	C399.598877,794.185303 397.205048,795.379395 396.000000,798.000000 
"/>
<path fill="none" opacity="1.000000" stroke="#000000" stroke-linecap="round" stroke-linejoin="round" stroke-width="2.000000"
	d="
M383.000000,1197.500000 
	C384.997253,1198.983643 384.636780,1200.580322 383.575623,1202.540894 
	C382.989929,1203.623291 381.355225,1204.342773 382.000000,1206.000000 
"/>
<path fill="none" opacity="1.000000" stroke="#000000" stroke-linecap="round" stroke-linejoin="round" stroke-width="2.000000"
	d="
M316.500000,703.000000 
	C318.295959,704.691589 319.441528,706.816772 320.500000,709.000000 
"/>
<path fill="none" opacity="1.000000" stroke="#000000" stroke-linecap="round" stroke-linejoin="round" stroke-width="3.000000"
	d="
M340.000000,929.000000 
	C337.782501,932.254639 340.168915,936.166992 338.500000,939.500000 
"/>
<path fill="none" opacity="1.000000" stroke="#000000" stroke-linecap="round" stroke-linejoin="round" stroke-width="2.000000"
	d="
M382.500000,955.500000 
	C384.131195,956.970703 385.318665,958.643005 385.000000,961.000000 
"/>
<path fill="none" opacity="1.000000" stroke="#000000" stroke-linecap="round" stroke-linejoin="round" stroke-width="2.000000"
	d="
M192.500000,613.500000 
	C189.837631,612.980103 189.394104,616.528076 187.000000,616.500000 
"/>
<path fill="none" opacity="1.000000" stroke="#000000" stroke-linecap="round" stroke-linejoin="round" stroke-width="3.000000"
	d="
M175.500000,627.000000 
	C177.365524,629.736755 180.656586,628.196899 183.000000,629.500000 
"/>
<path fill="none" opacity="1.000000" stroke="#000000" stroke-linecap="round" stroke-linejoin="round" stroke-width="2.000000"
	d="
M291.000000,698.000000 
	C291.166656,699.500000 291.333344,701.000000 291.500000,702.500000 
"/>
<path fill="none" opacity="1.000000" stroke="#000000" stroke-linecap="round" stroke-linejoin="round" stroke-width="2.000000"
	d="
M370.500000,698.000000 
	C370.500000,699.500000 370.500000,701.000000 370.500000,702.500000 
"/>
<path fill="none" opacity="1.000000" stroke="#000000" stroke-linecap="round" stroke-linejoin="round" stroke-width="2.000000"
	d="
M344.500000,698.000000 
	C344.372650,699.504395 342.661163,700.832703 344.000000,702.500000 
"/>
<path fill="none" opacity="1.000000" stroke="#000000" stroke-linecap="round" stroke-linejoin="round" stroke-width="2.000000"
	d="
M404.500000,747.500000 
	C399.833344,747.500000 395.166656,747.500000 390.500000,747.500000 
"/>
<path fill="none" opacity="1.000000" stroke="#000000" stroke-linecap="round" stroke-linejoin="round" stroke-width="2.000000"
	d="
M331.000000,926.000000 
	C332.500000,926.666687 334.000000,927.333313 335.500000,928.000000 
"/>
<path fill="none" opacity="1.000000" stroke="#000000" stroke-linecap="round" stroke-linejoin="round" stroke-width="2.000000"
	d="
M478.500000,666.000000 
	C476.415161,665.997986 475.910004,668.102234 474.500000,669.000000 
"/>
<path fill="none" opacity="1.000000" stroke="#000000" stroke-linecap="round" stroke-linejoin="round" stroke-width="2.000000"
	d="
M258.500000,698.000000 
	C258.154694,700.070007 260.878937,700.221497 261.000000,702.000000 
"/>
<path fill="none" opacity="1.000000" stroke="#000000" stroke-linecap="round" stroke-linejoin="round" stroke-width="2.000000"
	d="
M367.000000,761.500000 
	C365.941986,762.721924 366.768219,764.179382 366.500000,765.500000 
"/>
<path fill="none" opacity="1.000000" stroke="#000000" stroke-linecap="round" stroke-linejoin="round" stroke-width="2.000000"
	d="
M398.500000,698.000000 
	C398.727417,699.326904 396.950928,700.081238 397.500000,701.500000 
"/>
<path fill="none" opacity="1.000000" stroke="#000000" stroke-linecap="round" stroke-linejoin="round" stroke-width="2.000000"
	d="
M475.000000,690.000000 
	C476.166656,690.166626 477.333344,690.333313 478.500000,690.500000 
"/>
<path fill="none" opacity="1.000000" stroke="#000000" stroke-linecap="round" stroke-linejoin="round" stroke-width="2.000000"
	d="
M255.000000,686.000000 
	C255.166672,687.166687 255.333328,688.333313 255.500000,689.500000 
"/>
<path fill="none" opacity="1.000000" stroke="#000000" stroke-linecap="round" stroke-linejoin="round" stroke-width="2.000000"
	d="
M255.500000,1170.000000 
	C255.272583,1171.326904 257.049072,1172.081177 256.500000,1173.500000 
"/>
<path fill="none" opacity="1.000000" stroke="#000000" stroke-linecap="round" stroke-linejoin="round" stroke-width="2.000000"
	d="
M311.500031,686.000000 
	C311.000031,687.166687 310.500031,688.333374 310.000031,689.500000 
"/>
<path fill="none" opacity="1.000000" stroke="#000000" stroke-linecap="round" stroke-linejoin="round" stroke-width="3.000000"
	d="
M474.000000,609.000000 
	C476.177216,608.735291 478.552856,609.760193 480.500000,608.000000 
"/>
<path fill="none" opacity="1.000000" stroke="#000000" stroke-linecap="round" stroke-linejoin="round" stroke-width="2.000000"
	d="
M399.500000,743.000000 
	C399.500000,744.333313 399.500000,745.666687 399.500000,747.000000 
"/>
<path fill="none" opacity="1.000000" stroke="#000000" stroke-linecap="round" stroke-linejoin="round" stroke-width="3.000000"
	d="
M268.500000,343.000000 
	C255.167618,345.855713 246.031052,353.828766 241.583481,366.529236 
	C234.158981,387.730652 249.336273,409.622375 268.986267,412.108612 
	C280.003296,413.502502 289.361298,410.711334 297.477570,403.474854 
	C306.416809,395.504639 310.322083,385.158447 308.855621,373.518188 
	C306.584503,355.491028 291.409973,342.683136 275.499878,342.994171 
	C273.334045,343.036530 271.166656,343.000000 269.000000,343.000000 
"/>
<path fill="none" opacity="1.000000" stroke="#000000" stroke-linecap="round" stroke-linejoin="round" stroke-width="3.000000"
	d="
M800.500000,344.000000 
	C786.947754,347.149933 777.693481,355.131165 773.527588,368.508606 
	C766.955139,389.614166 781.214600,410.157654 801.003906,412.972504 
	C819.654236,415.625366 834.143982,406.606262 840.003479,389.001160 
	C844.640442,375.069061 840.476013,363.704895 830.585815,353.417511 
	C822.240356,344.736938 812.055664,343.371063 801.000000,344.000000 
"/>
</svg>